<svg width="14" height="17" viewBox="0 0 14 17" fill="none" xmlns="http://www.w3.org/2000/svg">
<path fill-rule="evenodd" clip-rule="evenodd" d="M6.38693 0.5V11.5353L1.91963 7.7186C1.70997 7.5396 1.3943 7.56427 1.21463 7.77427C1.0353 7.98427 1.0603 8.29993 1.2703 8.47927L6.56197 13.0006C6.65597 13.0806 6.7713 13.1203 6.88663 13.1203C7.01463 13.1203 7.1423 13.0713 7.2393 12.9746L11.784 8.4536C11.9803 8.25893 11.981 7.94227 11.7863 7.7466C11.5916 7.5506 11.2746 7.54993 11.0793 7.7446L7.38693 11.4171V0.5C7.38693 0.223667 7.16327 0 6.88693 0C6.6106 0 6.38693 0.223667 6.38693 0.5ZM0.5 16.2588H13.274C13.55 16.2588 13.7737 16.0351 13.7737 15.7588C13.7737 15.4828 13.55 15.2588 13.2737 15.2588H0.5C0.223667 15.2588 0 15.4828 0 15.7588C0 16.0351 0.223667 16.2588 0.5 16.2588Z" fill="white"/>
</svg>
