<svg width="51" height="44" viewBox="0 0 51 44" fill="none" xmlns="http://www.w3.org/2000/svg">
<path d="M20.6083 7.58984C20.5638 6.75429 20.4994 5.89757 20.4249 5.03257C20.1942 4.68277 19.9401 4.34879 19.6714 4.02539L10.2292 12.8229C10.5527 13.7052 10.8535 14.6244 11.1243 15.5814C11.7353 17.7501 12.194 20.103 12.4048 22.6185C13.2031 22.5287 13.9869 22.3522 14.7446 22.0922L20.7052 11.1875C20.7035 10.0193 20.6701 8.82103 20.6083 7.58984Z" fill="#44B87B"/>
<path d="M14.7442 22.0924C15.0801 21.9777 15.4141 21.8487 15.7363 21.7019L13.3005 25.9865L13.3099 25.988C13.1826 26.2038 13.0574 26.4161 12.9425 26.6387C12.928 26.6633 12.9144 26.687 12.9027 26.7109C11.8502 28.8129 11.5045 31.0905 11.7748 33.2667C11.8508 33.8726 11.9758 34.4699 12.1459 35.054C12.5172 36.3328 13.1062 37.5427 13.8965 38.6225C14.571 37.4698 15.2537 36.1767 15.9151 34.7348C17.6088 31.0465 19.1525 26.4054 20.0088 20.7658C20.3277 18.67 20.5463 16.4351 20.6465 14.0621C20.6857 13.1263 20.7055 12.167 20.705 11.188L14.7442 22.0924Z" fill="#ADD376"/>
<path d="M16.2507 1.27616C15.7035 0.993248 15.1435 0.761692 14.5776 0.576564C14.4379 0.531588 14.2974 0.488207 14.1581 0.448454C14.1197 0.437137 14.0815 0.428722 14.0418 0.417696C11.3312 -0.313242 8.49841 0.0416356 6.08915 1.30257C5.5505 1.5836 5.03612 1.90888 4.54599 2.27798C3.21072 3.28516 2.07679 4.61399 1.27061 6.22371C-0.309362 9.37466 -0.297661 12.9247 1.00307 15.9289C1.24821 16.5018 1.54443 17.0536 1.88545 17.5795C2.28383 18.1986 2.74371 18.7794 3.26338 19.3149L9.26179 13.7253L9.80143 13.2228L10.2291 12.8229L19.6712 4.02538C18.7478 2.92012 17.6017 1.97576 16.2507 1.27616Z" fill="#16AEE5"/>
<path d="M11.1239 15.5815C10.8537 14.6246 10.5522 13.7049 10.2289 12.8228L9.80124 13.2226L9.2616 13.7256L3.26318 19.3152C3.77871 19.8468 4.35117 20.3315 4.97914 20.7583C5.34812 21.0105 5.73238 21.2442 6.13647 21.454C6.38089 21.5804 6.62774 21.6925 6.87659 21.7995C8.67173 22.5713 10.5722 22.8243 12.4043 22.6187C12.1942 20.103 11.7355 17.7498 11.1239 15.5815Z" fill="#007EC2"/>
<path d="M24.9586 5.47297L24.9522 5.4663L22.2672 10.2032C22.2667 10.1965 22.265 10.1894 22.264 10.1827C22.2136 9.70539 22.1331 9.23445 22.0268 8.76988L20.705 11.1874C20.7055 12.1665 20.6857 13.1258 20.6465 14.0616C20.5466 16.4346 20.3274 18.6695 20.0088 20.7651C20.5647 19.97 21.1377 19.178 21.7387 18.3909C23.2538 16.4082 24.5464 14.4809 25.8274 12.6988C26.8559 8.461 27.352 5.10518 27.5509 2.49365C26.5429 3.30453 25.6585 4.30286 24.9586 5.47297Z" fill="#008C6A"/>
<path d="M18.8699 36.2422C19.9903 35.3176 21.1106 34.3671 22.2267 33.3984C22.2337 31.6215 22.5836 29.7048 22.9486 27.9813C24.0157 22.9269 26.8683 15.0261 29.5419 8.18262C28.2019 9.50971 27.0197 11.0405 25.827 12.6988C24.9522 16.3022 23.6951 20.5426 21.909 25.5037C20.3881 29.7321 19.4272 33.2755 18.8699 36.2422Z" fill="#0090B1"/>
<path d="M29.542 8.18237C30.7074 5.20218 31.8364 2.43063 32.7703 0.173828C30.8744 0.473574 29.0691 1.26849 27.5509 2.49359C27.3519 5.10541 26.8559 8.46108 25.8274 12.6987C27.0195 11.0404 28.2023 9.50947 29.542 8.18237Z" fill="#00665E"/>
<path d="M39.5168 1.27626C38.8891 0.951992 38.2448 0.693741 37.5935 0.499327C35.9977 0.0204015 34.3518 -0.0744841 32.77 0.174047C31.8361 2.43099 30.7072 5.20255 29.542 8.18259C31.8074 5.93856 34.5248 4.27429 38.503 3.5612C39.6191 3.36069 40.8444 3.24085 42.1772 3.1995C41.4064 2.44709 40.5175 1.79508 39.5168 1.27626Z" fill="#44B87B"/>
<path d="M21.4217 6.90315C21.1494 6.25099 20.816 5.62466 20.4253 5.03271C20.4998 5.89771 20.5636 6.75444 20.6081 7.58998C20.6699 8.82117 20.7032 10.0193 20.705 11.1875L22.0265 8.76996C21.8781 8.131 21.6769 7.50685 21.4217 6.90315Z" fill="#00665E"/>
<path d="M21.739 18.3911C21.1377 19.1784 20.5648 19.9704 20.0088 20.765C19.1526 26.4048 17.6088 31.0459 15.9151 34.7344C15.2537 36.1759 14.571 37.4694 13.8965 38.6224C14.1401 38.9532 14.3986 39.2735 14.6778 39.5782C15.6662 38.8219 16.6569 38.0442 17.6473 37.2417C18.0545 36.912 18.4623 36.5787 18.8703 36.2423C19.4276 33.2753 20.3885 29.7323 21.9094 25.5038C23.6949 20.5428 24.952 16.3024 25.8274 12.6987C24.5463 14.4812 23.2535 16.4086 21.739 18.3911Z" fill="#73A434"/>
<path d="M45.5726 10.5641C45.5668 10.492 45.5592 10.4206 45.5528 10.3486C44.0477 11.9924 42.4536 13.7049 40.7862 15.4624C40.2888 15.9856 39.7841 16.5137 39.2731 17.0434C37.3526 19.0433 35.335 21.0752 33.2673 23.1138C33.2626 23.1266 33.2644 23.1222 33.2661 23.1164V23.1147C33.2614 23.1186 33.261 23.1205 33.2614 23.1196C29.7326 26.5983 25.9798 30.1381 22.2272 33.3987C22.2219 34.635 22.385 35.7996 22.8212 36.7866C23.4454 38.2018 24.6336 39.2471 26.7212 39.5843C27.6581 39.7327 28.583 39.6282 29.5072 39.3369C30.3735 39.0637 31.2403 38.6245 32.1167 38.0835C32.1842 37.9795 32.2538 37.8747 32.3177 37.7677L32.3197 37.7722L33.9672 34.8726L35.4221 32.3097L40.6158 23.1667L44.0284 17.1537L44.0246 17.1488C44.1449 16.939 44.2733 16.7277 44.3872 16.5068C45.3407 14.6034 45.7129 12.5517 45.5726 10.5641Z" fill="#44B87B"/>
<path d="M44.3517 6.16272C44.0013 5.47415 43.5809 4.81953 43.0943 4.2109C42.8391 3.89316 42.5684 3.58921 42.2796 3.29875C42.2456 3.2648 42.2105 3.23259 42.1771 3.19922C40.8443 3.241 39.6191 3.3607 38.503 3.56092C34.5247 4.27415 31.8075 5.93857 29.5417 8.18274C26.8678 15.0263 24.0152 22.927 22.9481 27.9815C22.5837 29.7049 22.2332 31.6217 22.2268 33.3988C25.9795 30.1383 29.732 26.5985 33.2611 23.1198C33.2611 23.1198 33.2644 23.1171 33.2658 23.1146C33.2686 23.1088 33.2691 23.1018 33.2669 23.1137C35.3346 21.0751 37.3522 19.0431 39.273 17.0437C39.784 16.514 40.2881 15.9858 40.7859 15.4628C42.4535 13.705 44.0478 11.9925 45.5525 10.3486C45.4204 8.88728 45.0113 7.46428 44.3517 6.16272Z" fill="#16AEE5"/>
<path d="M17.6472 37.2417C16.6566 38.044 15.6665 38.8218 14.6775 39.5783C15.4544 40.4244 16.3716 41.16 17.4165 41.7503C17.5337 41.8162 17.6507 41.8844 17.7708 41.9462C17.925 42.0263 18.0803 42.1017 18.2354 42.174C18.2398 41.8123 18.2487 41.4393 18.2702 41.049C18.3142 40.196 18.4035 39.2726 18.5413 38.2747C18.6296 37.6288 18.7375 36.9538 18.8701 36.2422C18.462 36.5786 18.0547 36.9119 17.6472 37.2417Z" fill="#00665E"/>
<path d="M29.507 39.3374C28.5829 39.6287 27.6583 39.7328 26.7214 39.5845C24.6334 39.247 23.4454 38.2023 22.8212 36.7865C22.3853 35.8001 22.2219 34.6349 22.2272 33.3989C21.1111 34.3677 19.9901 35.3178 18.8703 36.2422C18.7379 36.9537 18.6299 37.6287 18.541 38.2752C18.4037 39.2725 18.3138 40.1966 18.2699 41.049C18.249 41.4397 18.2401 41.8125 18.2354 42.1742C20.3975 43.1694 22.7193 43.4044 24.9027 42.9789C26.0301 42.7592 27.118 42.3633 28.129 41.8066C29.7025 40.9386 31.0812 39.6814 32.1165 38.0842C31.2397 38.625 30.373 39.0639 29.507 39.3374Z" fill="#007EC2"/>
<path d="M45.5767 32.4138C42.655 32.4138 40.2888 34.8227 40.2888 37.7918C40.2888 40.762 42.655 43.1704 45.5767 43.1704C48.4975 43.1704 50.8658 40.7619 50.8658 37.7918C50.8658 34.8227 48.4975 32.4138 45.5767 32.4138Z" fill="#ADD376"/>
</svg>
