<svg width="15" height="15" viewBox="0 0 15 15" fill="none" xmlns="http://www.w3.org/2000/svg">
<path fill-rule="evenodd" clip-rule="evenodd" d="M4.31716 9.18875C4.41555 9.36286 4.81411 9.8833 4.9 9.96671C4.77116 9.96671 4.08377 10.0485 3.89888 10.0982C2.36805 10.5091 1.53756 11.7423 1.53756 11.7423C1.24067 12.0917 1 12.7347 1 13.1867V14.8125H14V13.1867C14 12.7384 13.7648 12.0797 13.4624 11.7423C13.4624 11.7423 12.6319 10.5091 11.1011 10.0982C10.9162 10.0485 10.2288 9.96671 10.1 9.96671C10.1859 9.8833 10.5844 9.36286 10.6828 9.18875C11.1609 8.34268 11.4 7.29098 11.4 6.6875V4.65625C11.4 2.21875 9.9375 1 7.5 1C5.0625 1 3.6 2.21875 3.6 4.65625V6.6875C3.6 7.29098 3.83905 8.34268 4.31716 9.18875ZM13.1333 13.1426V13.9492H1.86667V13.1426C1.86667 12.8781 2.03995 12.4171 2.21548 12.2123L2.27038 12.1404C2.37503 11.9863 2.61131 11.7191 2.96018 11.4496C3.52758 11.0113 4.17393 10.7553 4.9 10.7553C5.66476 10.7553 6.05469 9.9015 5.52355 9.38996C4.9359 8.82398 4.46667 7.50742 4.46667 6.69766V4.68333C4.46667 2.77172 5.47434 1.86328 7.5 1.86328C9.52566 1.86328 10.5333 2.77172 10.5333 4.68333V6.69766C10.5333 7.50742 10.0641 8.82398 9.47645 9.38996C8.94531 9.9015 9.33524 10.7553 10.1 10.7553C10.8261 10.7553 11.4724 11.0113 12.0398 11.4496C12.3887 11.7191 12.625 11.9863 12.7296 12.1404L12.7988 12.2285C12.9606 12.4076 13.1333 12.8737 13.1333 13.1426Z" fill="white"/>
<path d="M4.9 9.96671V10.0667H5.1465L4.96967 9.89498L4.9 9.96671ZM4.31716 9.18875L4.2301 9.23794L4.31716 9.18875ZM3.89888 10.0982L3.87296 10.0016L3.89888 10.0982ZM1.53756 11.7423L1.61424 11.8074L1.6205 11.7981L1.53756 11.7423ZM1 14.8125H0.9V14.9125H1V14.8125ZM14 14.8125V14.9125H14.1V14.8125H14ZM13.4624 11.7423L13.3787 11.7986L13.388 11.809L13.4624 11.7423ZM11.1011 10.0982L11.127 10.0016L11.1011 10.0982ZM10.1 9.96671L10.0303 9.89498L9.8535 10.0667H10.1V9.96671ZM10.6828 9.18875L10.7699 9.23794L10.6828 9.18875ZM13.1333 13.9492V14.0492H13.2333V13.9492H13.1333ZM1.86667 13.9492H1.76667V14.0492H1.86667V13.9492ZM2.21548 12.2123L2.29154 12.2774L2.29492 12.273L2.21548 12.2123ZM2.27038 12.1404L2.34995 12.2013L2.3531 12.1966L2.27038 12.1404ZM2.96018 11.4496L3.02132 11.5287L2.96018 11.4496ZM5.52355 9.38996L5.45418 9.46198L5.52355 9.38996ZM9.47645 9.38996L9.54582 9.46198L9.47645 9.38996ZM12.0398 11.4496L11.9787 11.5287L12.0398 11.4496ZM12.7296 12.1404L12.6467 12.1968L12.651 12.2022L12.7296 12.1404ZM12.7988 12.2285L12.72 12.2904L12.7246 12.2955L12.7988 12.2285ZM4.96967 9.89498C4.93343 9.85979 4.81736 9.71592 4.69305 9.55145C4.56973 9.3883 4.44961 9.21986 4.40422 9.13955L4.2301 9.23794C4.28311 9.33174 4.41146 9.51059 4.53349 9.67204C4.65453 9.83217 4.78068 9.99023 4.83033 10.0385L4.96967 9.89498ZM3.92481 10.1947C4.00938 10.172 4.22025 10.1399 4.43299 10.113C4.64597 10.0861 4.84318 10.0667 4.9 10.0667V9.86671C4.82798 9.86671 4.61707 9.8882 4.40793 9.91462C4.19853 9.94106 3.97327 9.97466 3.87296 10.0016L3.92481 10.1947ZM1.53756 11.7423C1.6205 11.7981 1.62048 11.7981 1.62047 11.7982C1.62047 11.7982 1.62046 11.7982 1.62046 11.7982C1.62046 11.7982 1.62047 11.7982 1.6205 11.7981C1.62055 11.798 1.62065 11.7979 1.6208 11.7977C1.6211 11.7972 1.6216 11.7965 1.6223 11.7955C1.6237 11.7934 1.62591 11.7903 1.62891 11.786C1.63491 11.7775 1.6441 11.7648 1.65644 11.7482C1.68113 11.715 1.71842 11.6667 1.76803 11.6072C1.86731 11.4882 2.01571 11.3247 2.21111 11.1486C2.60234 10.7959 3.17908 10.3949 3.92481 10.1947L3.87296 10.0016C3.08786 10.2123 2.48394 10.6334 2.0772 11C1.87363 11.1835 1.71872 11.3541 1.61444 11.4791C1.56228 11.5416 1.52273 11.5929 1.49602 11.6287C1.48266 11.6467 1.47251 11.6608 1.4656 11.6706C1.46215 11.6755 1.4595 11.6793 1.45767 11.6819C1.45675 11.6832 1.45604 11.6843 1.45553 11.685C1.45527 11.6854 1.45507 11.6857 1.45492 11.6859C1.45484 11.6861 1.45478 11.6861 1.45473 11.6862C1.4547 11.6863 1.45467 11.6863 1.45466 11.6863C1.45463 11.6864 1.45461 11.6864 1.53756 11.7423ZM1.1 13.1867C1.1 12.9762 1.15656 12.7146 1.25115 12.4609C1.34569 12.2073 1.47496 11.9704 1.61377 11.807L1.46134 11.6775C1.30327 11.8636 1.16376 12.1228 1.06375 12.3911C0.96378 12.6592 0.9 12.9451 0.9 13.1867H1.1ZM1.1 14.8125V13.1867H0.9V14.8125H1.1ZM14 14.7125H1V14.9125H14V14.7125ZM13.9 13.1867V14.8125H14.1V13.1867H13.9ZM13.388 11.809C13.5279 11.9651 13.6568 12.2016 13.7507 12.4574C13.8446 12.7129 13.9 12.9777 13.9 13.1867H14.1C14.1 12.9474 14.0378 12.6587 13.9385 12.3884C13.8392 12.1184 13.6994 11.8568 13.5369 11.6755L13.388 11.809ZM11.0752 10.1947C11.8209 10.3949 12.3977 10.7959 12.7889 11.1486C12.9843 11.3247 13.1327 11.4882 13.232 11.6072C13.2816 11.6667 13.3189 11.715 13.3436 11.7482C13.3559 11.7648 13.3651 11.7775 13.3711 11.786C13.3741 11.7903 13.3763 11.7934 13.3777 11.7955C13.3784 11.7965 13.3789 11.7972 13.3792 11.7977C13.3794 11.7979 13.3795 11.798 13.3795 11.7981C13.3795 11.7982 13.3795 11.7982 13.3795 11.7982C13.3795 11.7982 13.3795 11.7982 13.3795 11.7982C13.3795 11.7981 13.3795 11.7981 13.4624 11.7423C13.5454 11.6864 13.5454 11.6864 13.5453 11.6863C13.5453 11.6863 13.5453 11.6863 13.5453 11.6862C13.5452 11.6861 13.5452 11.6861 13.5451 11.6859C13.5449 11.6857 13.5447 11.6854 13.5445 11.685C13.544 11.6843 13.5432 11.6832 13.5423 11.6819C13.5405 11.6793 13.5379 11.6755 13.5344 11.6706C13.5275 11.6608 13.5173 11.6467 13.504 11.6287C13.4773 11.5929 13.4377 11.5416 13.3856 11.4791C13.2813 11.3541 13.1264 11.1835 12.9228 11C12.5161 10.6334 11.9121 10.2123 11.127 10.0016L11.0752 10.1947ZM10.1 10.0667C10.1568 10.0667 10.354 10.0861 10.567 10.113C10.7797 10.1399 10.9906 10.172 11.0752 10.1947L11.127 10.0016C11.0267 9.97466 10.8015 9.94106 10.5921 9.91462C10.3829 9.8882 10.172 9.86671 10.1 9.86671V10.0667ZM10.5958 9.13955C10.5504 9.21986 10.4303 9.3883 10.307 9.55145C10.1826 9.71592 10.0666 9.85979 10.0303 9.89498L10.1697 10.0385C10.2193 9.99023 10.3455 9.83217 10.4665 9.67204C10.5885 9.51059 10.7169 9.33174 10.7699 9.23794L10.5958 9.13955ZM11.3 6.6875C11.3 7.27295 11.0658 8.3078 10.5958 9.13955L10.7699 9.23794C11.2561 8.37756 11.5 7.309 11.5 6.6875H11.3ZM11.3 4.65625V6.6875H11.5V4.65625H11.3ZM7.5 1.1C8.70336 1.1 9.65087 1.40086 10.2968 1.98806C10.9411 2.57382 11.3 3.45791 11.3 4.65625H11.5C11.5 3.41709 11.1276 2.47306 10.4313 1.84007C9.73663 1.20852 8.73414 0.9 7.5 0.9V1.1ZM3.7 4.65625C3.7 3.45791 4.05887 2.57382 4.7032 1.98806C5.34913 1.40086 6.29664 1.1 7.5 1.1V0.9C6.26586 0.9 5.26337 1.20852 4.56867 1.84007C3.87238 2.47306 3.5 3.41709 3.5 4.65625H3.7ZM3.7 6.6875V4.65625H3.5V6.6875H3.7ZM4.40422 9.13955C3.9342 8.3078 3.7 7.27295 3.7 6.6875H3.5C3.5 7.309 3.7439 8.37756 4.2301 9.23794L4.40422 9.13955ZM13.2333 13.9492V13.1426H13.0333V13.9492H13.2333ZM1.86667 14.0492H13.1333V13.8492H1.86667V14.0492ZM1.76667 13.1426V13.9492H1.96667V13.1426H1.76667ZM2.13954 12.1472C2.04102 12.2622 1.94884 12.4408 1.88162 12.6199C1.81448 12.7989 1.76667 12.9931 1.76667 13.1426H1.96667C1.96667 13.0276 2.00549 12.8591 2.06887 12.6902C2.13218 12.5215 2.21441 12.3672 2.29142 12.2773L2.13954 12.1472ZM2.19093 12.0797L2.13603 12.1515L2.29492 12.273L2.34982 12.2012L2.19093 12.0797ZM2.89904 11.3705C2.54332 11.6453 2.29923 11.92 2.18765 12.0843L2.3531 12.1966C2.45083 12.0527 2.67929 11.793 3.02132 11.5287L2.89904 11.3705ZM4.9 10.6553C4.14864 10.6553 3.48127 10.9207 2.89904 11.3705L3.02132 11.5287C3.57389 11.1019 4.19922 10.8553 4.9 10.8553V10.6553ZM5.45418 9.46198C5.68718 9.68638 5.71701 9.98152 5.60677 10.2229C5.49609 10.4652 5.2426 10.6553 4.9 10.6553V10.8553C5.32216 10.8553 5.64601 10.6184 5.7887 10.306C5.93183 9.99259 5.89106 9.60507 5.59292 9.31793L5.45418 9.46198ZM4.36667 6.69766C4.36667 7.11853 4.48781 7.66257 4.68128 8.1708C4.87441 8.67811 5.14514 9.16434 5.45418 9.46198L5.59292 9.31793C5.31431 9.0496 5.0566 8.59455 4.8682 8.09965C4.68014 7.60566 4.56667 7.08655 4.56667 6.69766H4.36667ZM4.36667 4.68333V6.69766H4.56667V4.68333H4.36667ZM7.5 1.76328C6.47433 1.76328 5.68689 1.99303 5.1559 2.48296C4.62332 2.97434 4.36667 3.71069 4.36667 4.68333H4.56667C4.56667 3.74436 4.81385 3.07068 5.29152 2.62995C5.77079 2.18775 6.50001 1.96328 7.5 1.96328V1.76328ZM10.6333 4.68333C10.6333 3.71069 10.3767 2.97434 9.8441 2.48296C9.31311 1.99303 8.52566 1.76328 7.5 1.76328V1.96328C8.49999 1.96328 9.22921 2.18775 9.70848 2.62995C10.1862 3.07068 10.4333 3.74436 10.4333 4.68333H10.6333ZM10.6333 6.69766V4.68333H10.4333V6.69766H10.6333ZM9.54582 9.46198C9.85486 9.16434 10.1256 8.67811 10.3187 8.1708C10.5122 7.66257 10.6333 7.11853 10.6333 6.69766H10.4333C10.4333 7.08655 10.3199 7.60566 10.1318 8.09965C9.9434 8.59455 9.68569 9.0496 9.40708 9.31793L9.54582 9.46198ZM10.1 10.6553C9.7574 10.6553 9.50391 10.4652 9.39323 10.2229C9.28299 9.98152 9.31282 9.68638 9.54582 9.46198L9.40708 9.31793C9.10894 9.60507 9.06817 9.99259 9.2113 10.306C9.35399 10.6184 9.67785 10.8553 10.1 10.8553V10.6553ZM12.101 11.3705C11.5187 10.9207 10.8514 10.6553 10.1 10.6553V10.8553C10.8008 10.8553 11.4261 11.1019 11.9787 11.5287L12.101 11.3705ZM12.8123 12.0843C12.7008 11.92 12.4567 11.6453 12.101 11.3705L11.9787 11.5287C12.3207 11.793 12.5492 12.0527 12.6469 12.1966L12.8123 12.0843ZM12.8774 12.1667L12.8083 12.0787L12.651 12.2022L12.7202 12.2903L12.8774 12.1667ZM13.2333 13.1426C13.2333 12.9914 13.1859 12.7949 13.1206 12.6174C13.0557 12.4407 12.9667 12.2652 12.873 12.1615L12.7246 12.2955C12.7927 12.3709 12.871 12.518 12.9329 12.6864C12.9944 12.8539 13.0333 13.025 13.0333 13.1426H13.2333Z" fill="white"/>
</svg>
