<svg width="218" height="182" viewBox="0 0 218 182" fill="none" xmlns="http://www.w3.org/2000/svg">
<path opacity="0.2" d="M87.5846 32L88.3336 31.9616L88.2573 30.4721L87.1071 31.4216L87.5846 32ZM47 65.5038L46.5225 64.9254L46.1432 65.2385L46.2792 65.7112L47 65.5038ZM52.4824 95L51.7351 95.0638L51.8005 95.8291L52.5639 95.7456L52.4824 95ZM62.4952 92.7934L62.7341 93.5043L63.0089 93.412L63.1501 93.1588L62.4952 92.7934ZM88 47.0815L88.655 47.4469L88.7503 47.276L88.75 47.0803L88 47.0815ZM79.2552 79.3119L78.5645 79.0198L78.5644 79.02L79.2552 79.3119ZM87.7542 59.1606L88.4454 59.4518L88.4979 59.3272L88.5036 59.1922L87.7542 59.1606ZM87.9997 47L88.7497 46.999L87.3424 46.6389L87.9997 47ZM62.6632 93.1249L62.0058 92.7638L61.0726 94.4626L62.9062 93.8344L62.6632 93.1249ZM66.88 91.4725L67.5312 91.8445L68.6793 89.8347L66.5707 90.7892L66.88 91.4725ZM56.5267 109.596L55.8755 109.224L55.4082 110.042L56.3101 110.314L56.5267 109.596ZM56.5619 109.606L57.2067 109.989L57.6963 109.165L56.7785 108.888L56.5619 109.606ZM55 112.353L54.3356 112.005L54.2136 112.238L54.2638 112.497L55 112.353ZM58.1533 125L57.437 125.222L57.9847 126.989L58.8221 125.34L58.1533 125ZM88 59L88.7493 59.0328L87.3116 58.7023L88 59ZM79.3864 78.8946L78.6985 78.5959L78.6984 78.5961L79.3864 78.8946ZM58 124L57.3349 123.654L57.1911 123.93L57.2848 124.226L58 124ZM59.7217 129L59.0193 129.263L59.6173 130.861L60.3904 129.34L59.7217 129ZM85.2474 86.9893L85.8556 87.4281L85.9605 87.2827L85.9883 87.1056L85.2474 86.9893ZM60 129.49L59.327 129.158L59.186 129.445L59.295 129.745L60 129.49ZM67.7272 146L67.0812 146.381L67.8104 147.617L68.4088 146.313L67.7272 146ZM85 87L85.7415 87.1123L84.3852 86.5705L85 87ZM173 83L172.25 82.9975L172.24 85.8787L173.654 83.3679L173 83ZM195 43.9166L195.654 44.2845L195.765 44.0861L195.748 43.859L195 43.9166ZM194.914 43L195.661 42.9348L195.514 41.2446L194.363 42.4913L194.914 43ZM174.476 64.7517L173.934 64.2333L173.773 64.4015L173.736 64.6312L174.476 64.7517ZM173.741 97L172.995 97.0782L173.236 99.38L174.391 97.3742L173.741 97ZM188.296 71.7166L188.946 72.0908L189.215 71.6239L188.859 71.2202L188.296 71.7166ZM188.277 71.6949L187.628 71.3195L187.358 71.7868L187.715 72.1914L188.277 71.6949ZM189.82 68.9949L190.485 69.3416L190.489 69.3344L189.82 68.9949ZM194.878 44L195.626 43.9465L195.449 41.4691L194.225 43.6306L194.878 44ZM173.001 82.6491L172.349 82.2796L172.252 82.45L172.251 82.6457L173.001 82.6491ZM194 43.5506L194.553 44.0572L194.777 43.8129L194.747 43.4829L194 43.5506ZM188.96 26L189.629 25.6606L189.041 24.5026L188.332 25.5903L188.96 26ZM174 65L173.26 64.8809L172.874 67.2753L174.544 65.5163L174 65ZM26 5L26.7037 5.2595L27.3537 3.49673L25.6685 4.32726L26 5ZM19 9.1772L18.5658 8.56567L17.9187 9.0251L18.4139 9.6452L19 9.1772ZM22.681 14L22.0759 14.4431L22.9013 15.5704L23.3847 14.2595L22.681 14ZM60.1866 2.12867L60.3873 1.40604L60.3858 1.40561L60.1866 2.12867ZM59.6846 2L59.8973 1.28079L59.3901 1.1308L59.0786 1.55821L59.6846 2ZM35 35.8641L34.3939 35.4223L34.1211 35.7965L34.3335 36.2081L35 35.8641ZM41.8995 51L41.2029 51.2778L41.885 52.9881L42.592 51.288L41.8995 51ZM49.1796 33.4952L48.4872 33.2071L48.4871 33.2072L49.1796 33.4952ZM62 2.67257L62.6925 2.9606L63.0072 2.20398L62.2257 1.95735L62 2.67257ZM69.2378 5.91307L68.9025 6.58392L68.9028 6.58411L69.2378 5.91307ZM62.0136 3L62.238 2.28435L61.5859 2.0799L61.3219 2.71018L62.0136 3ZM49.2486 33.4678L48.5569 33.178L48.5569 33.178L49.2486 33.4678ZM42 50.7711L41.3082 50.4813L41.1899 50.7638L41.3032 51.0484L42 50.7711ZM42.6025 52.2808L43.3017 52.0095L43.3 52.0052L42.6025 52.2808ZM43.2519 54L42.5504 54.2652L42.9381 55.2908L43.7534 54.5577L43.2519 54ZM84 17.3638L84.5014 17.9216L85.0487 17.4295L84.5671 16.873L84 17.3638ZM35.7425 35L35.0755 35.3428L35.6331 36.4279L36.3496 35.4404L35.7425 35ZM60 1.56675L60.607 2.00719L61.2503 1.12056L60.1911 0.841496L60 1.56675ZM26.1166 5.24644L25.7751 4.57868L25.5099 4.71428L25.41 4.99484L26.1166 5.24644ZM23 13.9983L22.2935 13.7467L22.1628 14.1137L22.3879 14.4316L23 13.9983ZM47.7898 66L47.0679 66.2036L47.3837 67.323L48.2731 66.5735L47.7898 66ZM88 32.1106L88.4833 32.684L88.7687 32.4435L88.7489 32.0708L88 32.1106ZM87.2279 21.267L87.9752 21.2034L87.9589 21.0119L87.8525 20.8518L87.2279 21.267ZM84.0281 17L84.6039 16.5194L84.0964 15.9113L83.5168 16.4513L84.0281 17ZM44 54.2994L43.4887 53.7507L43.1251 54.0896L43.2954 54.5565L44 54.2994ZM54.6574 112L55.3919 111.848L55.0145 110.022L54.0223 111.601L54.6574 112ZM54.4789 112.306L53.8309 111.928L53.8238 111.94L53.8173 111.953L54.4789 112.306ZM49.3982 140L48.6547 140.099L48.944 142.276L50.0468 140.377L49.3982 140ZM58 124.63L58.6601 124.987L58.8133 124.703L58.7124 124.396L58 124.63ZM58.2689 124L58.9847 123.776L58.44 122.036L57.6026 123.656L58.2689 124ZM50 139.421L49.3446 139.056L49.2249 139.272L49.256 139.516L50 139.421ZM51.6054 147L50.8865 147.214L51.4718 149.183L52.2929 147.3L51.6054 147ZM60 129.074L60.6699 129.412L60.8167 129.12L60.7032 128.814L60 129.074ZM40 57L40.6938 57.2849L39.4931 56.4473L40 57ZM14 80.8464L13.4931 80.2937L12.9197 80.8195L13.4662 81.3732L14 80.8464ZM21.4414 87L21.0246 87.6235L21.4896 87.9344L21.9202 87.5773L21.4414 87ZM30.9012 79.1546L31.38 79.7319L31.524 79.6125L31.595 79.4395L30.9012 79.1546ZM21 86.9792L20.5025 86.418L19.8018 87.0392L20.561 87.5873L21 86.9792ZM25.7723 90L25.4121 90.6578L26.1646 91.0699L26.4723 90.2691L25.7723 90ZM30 79L30.7001 79.2691L29.5025 78.4388L30 79ZM47.4814 65L48.2021 64.7927L47.886 63.6935L47.004 64.4216L47.4814 65ZM34.6239 75.6121L34.1465 75.0337L34.1461 75.034L34.6239 75.6121ZM30.416 79.0899L29.9382 78.5117L29.7941 78.6309L29.7227 78.8038L30.416 79.0899ZM26 89.7941L25.3067 89.5081L25.0414 90.1511L25.6627 90.464L26 89.7941ZM29.1859 91.2499L28.894 91.9408L28.8947 91.9411L29.1859 91.2499ZM53 94.7096L53.0823 95.4551L53.8095 95.3748L53.7473 94.6458L53 94.7096ZM60.2264 129L60.9311 128.743L60.3307 127.095L59.554 128.668L60.2264 129ZM52 146.897L51.3105 146.602L51.2048 146.848L51.2799 147.106L52 146.897ZM59.4367 162L58.8323 162.444L59.5078 163.364L60.084 162.379L59.4367 162ZM68 145.542L68.6814 145.856L68.8457 145.499L68.6453 145.16L68 145.542ZM42 50.2154L42.6957 50.4957L42.8063 50.2212L42.6996 49.9452L42 50.2154ZM35.2816 35L35.9524 34.6646L35.3918 33.5434L34.6689 34.5675L35.2816 35ZM8 73.6447L7.3873 73.2122L7.09598 73.6248L7.36886 74.0499L8 73.6447ZM13.8168 81L13.2769 81.5205L13.7895 82.0523L14.3291 81.5478L13.8168 81ZM39.1354 57.3251L39.6476 57.873L39.769 57.7595L39.831 57.6054L39.1354 57.3251ZM19.48 10L20.0707 9.5379L19.6249 8.96798L19.0393 9.39308L19.48 10ZM5.2777 26.4733L5.94283 26.8198L5.94327 26.819L5.2777 26.4733ZM4.11128 67L3.42716 67.3074L4.18689 68.9983L4.81667 67.2548L4.11128 67ZM23 14.7081L23.7054 14.9629L23.8395 14.5917L23.6095 14.2709L23 14.7081ZM42.3787 52.5116L43.0819 52.2509L43.0803 52.2467L42.3787 52.5116ZM41.8023 51L42.5033 50.7334L41.8202 48.9371L41.106 50.7213L41.8023 51ZM39 58L38.3037 57.7213L39.5137 58.5465L39 58ZM41.2301 55.9039L41.7437 56.4504L41.7449 56.4493L41.2301 55.9039ZM43 54.233L43.5149 54.7784L43.8725 54.4408L43.7054 53.9782L43 54.233ZM22.3757 14L22.9933 13.5744L22.1524 12.3543L21.6671 13.7544L22.3757 14ZM4 67.0124L3.29137 66.7667L3.19656 67.0402L3.31009 67.3065L4 67.0124ZM7.72328 74L7.09324 74.4069L7.69551 75.3395L8.33592 74.4326L7.72328 74ZM35 35.3738L35.6126 35.8065L35.8716 35.4397L35.6707 35.0383L35 35.3738ZM43.1644 54L43.8684 53.7415L43.4798 52.6832L42.6539 53.4505L43.1644 54ZM41.325 55.7089L41.8343 56.2595L41.8355 56.2583L41.325 55.7089ZM39.0075 57.8525L38.4982 57.3019L38.3756 57.4153L38.3127 57.57L39.0075 57.8525ZM30 80L29.3053 79.7174L30.4817 80.5748L30 80ZM34.1918 76.4872L33.7104 75.9121L33.7101 75.9124L34.1918 76.4872ZM47 65.7684L47.4813 66.3435L47.8543 66.0314L47.7215 65.5635L47 65.7684ZM145 147L144.279 146.794L145.658 147.359L145 147ZM151 136L151.658 136.359L152.91 134.064L150.632 135.346L151 136ZM147.631 137.796L147.302 137.122L147.001 137.268L146.91 137.59L147.631 137.796ZM167.381 71.6584L166.851 71.1277L166.72 71.2592L166.665 71.4371L167.381 71.6584ZM154 115L153.283 114.779L154.649 115.376L154 115ZM172.495 83.0827L173.144 83.4587L173.244 83.2855L173.245 83.0853L172.495 83.0827ZM174 65L174.74 65.1239L175.13 62.7917L173.467 64.4724L174 65ZM173.249 83L173.999 83.0034L174.012 80.1459L172.598 82.6287L173.249 83ZM154.957 115.106L154.305 114.735L154.264 114.808L154.239 114.888L154.957 115.106ZM148 138L147.282 137.782L146.798 139.376L148.313 138.682L148 138ZM151.536 136.226L151.887 136.889L152.077 136.789L152.185 136.603L151.536 136.226ZM174 97.4656L174.649 97.8417L174.772 97.6301L174.746 97.3869L174 97.4656ZM173.555 65.3513L174.09 65.8766L174.256 65.7075L174.295 65.4737L173.555 65.3513ZM189 26.2175L189.623 26.6354L189.871 26.2648L189.664 25.8694L189 26.2175ZM183.552 18L184.132 17.5236L183.244 16.4451L182.835 17.7802L183.552 18ZM167 72L166.283 71.7802L167.532 72.5285L167 72ZM88.4107 47L87.6607 47.0011L89.0678 47.3616L88.4107 47ZM94 36.8435L94.6571 37.2051L94.7955 36.9536L94.7306 36.6739L94 36.8435ZM91.4401 29L92.1301 28.7059L91.7333 27.7751L90.9581 28.4254L91.4401 29ZM88 31.8858L87.518 31.3111L87.2321 31.551L87.251 31.9236L88 31.8858ZM88 59L87.2507 58.9672L88.6878 59.2991L88 59ZM95 42.8732L95.6881 43.1716L95.7671 42.9893L95.7456 42.7918L95 42.8732ZM93.9681 37L94.6977 36.8261L94.2568 34.9763L93.3163 36.6291L93.9681 37ZM88.25 47.0494L87.5981 46.6785L87.4997 46.8515L87.5 47.0505L88.25 47.0494ZM95 140L94.25 139.997L94.2431 141.626L95.4854 140.572L95 140ZM142.32 96.9408L142.84 97.4812L142.887 97.4362L142.925 97.3838L142.32 96.9408ZM142.342 96.9198L142.726 97.5641L142.99 97.407L143.068 97.1103L142.342 96.9198ZM142.345 96.9124L141.603 96.8004L143.064 97.1248L142.345 96.9124ZM164.753 22.6294L165.497 22.7231L165.497 22.7221L164.753 22.6294ZM164.794 15L165.54 14.9164L165.451 14.1236L164.665 14.2612L164.794 15ZM126.367 34.3645L125.846 33.8256L125.73 33.9372L125.671 34.086L126.367 34.3645ZM98.0925 117.306L98.8255 117.465L98.8256 117.464L98.0925 117.306ZM85 87L84.2587 86.8864L85.6131 87.432L85 87ZM92.3431 76.9957L92.9377 77.4528L92.9377 77.4528L92.3431 76.9957ZM109.688 53.0104L110.295 53.4503L110.381 53.3312L110.416 53.1883L109.688 53.0104ZM117 10L117.748 10.0574L117.88 8.33629L116.532 9.4142L117 10ZM106.001 22.5597L105.426 23.0413L106.101 23.8471L106.643 22.9466L106.001 22.5597ZM105.974 22.5273L106.549 22.0457L105.856 21.2196L105.322 22.1556L105.974 22.5273ZM94.5821 42.4869L93.8372 42.5737L94.1014 44.8422L95.2335 42.8587L94.5821 42.4869ZM94.5723 42.4042L95.3202 42.3483L93.8806 42.1142L94.5723 42.4042ZM87.7106 58.754L87.0192 58.4632L86.967 58.5874L86.9613 58.722L87.7106 58.754ZM80 152L79.2635 151.858L78.8766 153.867L80.4703 152.584L80 152ZM94.4704 140.041L94.955 140.613L95.2189 140.39L95.2204 140.044L94.4704 140.041ZM97.5789 117.26L98.3119 117.418L98.3119 117.418L97.5789 117.26ZM126 34L126.696 34.2788L125.479 33.4605L126 34ZM109.989 52.9927L109.385 52.5477L109.297 52.6673L109.261 52.8114L109.989 52.9927ZM93.1019 106.844L93.8056 107.104L93.8056 107.104L93.1019 106.844ZM142 97.0043L142.579 97.4804L142.75 97.2729V97.0043H142ZM142 97H142.75V95.6656L141.61 96.3593L142 97ZM141.97 97.0252L142.491 97.5649L142.556 97.5026L142.604 97.427L141.97 97.0252ZM95.0005 139.875L94.5144 139.304L94.252 139.528L94.2505 139.872L95.0005 139.875ZM97.5307 154L96.8472 154.309L97.2963 155.303L98.0637 154.528L97.5307 154ZM141.965 97.0492L141.349 96.6222L141.338 96.6379L141.328 96.6541L141.965 97.0492ZM93.3997 106.74L94.1046 106.996L94.1046 106.996L93.3997 106.74ZM110 53L110.728 53.1787L109.393 52.5593L110 53ZM92.6779 76.8854L93.2718 77.3434L93.2719 77.3434L92.6779 76.8854ZM85.3442 86.8481L84.7318 86.4153L84.6296 86.5598L84.6029 86.7347L85.3442 86.8481ZM68 145.473L67.3196 145.158L67.153 145.517L67.3557 145.857L68 145.473ZM75.3392 156L74.7578 156.474L75.2285 157.051L75.8091 156.585L75.3392 156ZM80.5203 151.802L80.995 152.383L81.2063 152.21L81.2572 151.942L80.5203 151.802ZM164.612 22.2081L165.356 22.3021L165.356 22.3011L164.612 22.2081ZM142 97L141.281 96.7871L142.687 97.302L142 97ZM142.026 96.9539L142.643 97.3807L142.653 97.365L142.663 97.3489L142.026 96.9539ZM181 13.4225L181.713 13.6564L181.858 13.214L181.526 12.8876L181 13.4225ZM180.552 13L181.069 12.4571L180.842 12.2406L180.528 12.2504L180.552 13ZM164.654 14.5265L164.525 13.7877L163.83 13.9093L163.909 14.6103L164.654 14.5265ZM75 156.429L74.5049 155.865L73.9848 156.323L74.3989 156.877L75 156.429ZM78.6597 161L78.0902 161.488L79.1932 162.775L79.4039 161.093L78.6597 161ZM80 152L80.7393 152.126L81.1014 150.01L79.5002 151.441L80 152ZM80.3788 151.89L79.9032 151.31L79.6916 151.483L79.6415 151.752L80.3788 151.89ZM79 160.388L78.2569 160.287L78.209 160.638L78.4497 160.898L79 160.388ZM84.7141 166L84.2152 166.56L84.7182 167.008L85.2177 166.556L84.7141 166ZM97 154.163L97.5368 154.687L97.8921 154.323L97.6852 153.858L97 154.163ZM94.5 140L95.25 140.003L95.257 138.357L94.0101 139.432L94.5 140ZM126.049 33.8889L126.571 34.4274L126.686 34.3158L126.745 34.167L126.049 33.8889ZM140 0L140.691 0.292316L141.215 -0.946269L139.886 -0.741233L140 0ZM117.447 9.81213L116.981 9.22375L116.724 9.42705L116.699 9.75392L117.447 9.81213ZM110 53L109.272 52.8197L110.605 53.4439L110 53ZM180 13.4636L180.023 14.2132L181.822 14.1572L180.516 12.9193L180 13.4636ZM168.392 5.30214L168.73 4.63256L168.729 4.6324L168.392 5.30214ZM160 2L160.21 1.28009L158.566 0.799833L159.328 2.33369L160 2ZM163.97 15L163.225 15.0833L163.313 15.8761L164.099 15.7388L163.97 15ZM164 14.6976L164.13 15.4362L164.823 15.314L164.745 14.6153L164 14.6976ZM160.142 1.91091L160.815 1.58043L160.67 1.28496L160.355 1.19166L160.142 1.91091ZM139.693 0.557383L139.578 -0.18376L139.164 -0.119587L139.002 0.26641L139.693 0.557383ZM126 34L125.303 33.7232L126.524 34.5368L126 34ZM91 29.0453L91.503 29.6017L91.8866 29.2549L91.6988 28.773L91 29.0453ZM87 21L87.6382 20.6061L86.2524 21.0594L87 21ZM87.7319 32L86.9828 32.0372L87.0613 33.6174L88.2349 32.5563L87.7319 32ZM67.6084 146L68.2486 145.609L67.5255 144.424L66.9307 145.679L67.6084 146ZM59 162.058L58.3577 161.67L58.0956 162.105L58.4017 162.51L59 162.058ZM62.3277 166L61.7825 166.515L62.2389 166.998L62.7735 166.603L62.3277 166ZM75 156.357L75.4624 156.947L76.0715 156.47L75.5759 155.876L75 156.357ZM79 160.351L79.7422 160.458L79.7951 160.094L79.5387 159.829L79 160.351ZM75.0629 156L75.6362 155.516L75.1722 154.966L74.6034 155.407L75.0629 156ZM62 165.843L61.557 165.237L60.8662 165.743L61.4583 166.361L62 165.843ZM74.0493 175L73.692 175.659L74.1262 175.895L74.5139 175.589L74.0493 175ZM77.8019 172.04L78.2782 172.619L78.5331 172.41L78.5508 172.08L77.8019 172.04ZM79.1691 161L79.7229 160.494L78.6445 159.313L78.4261 160.898L79.1691 161ZM78 173L77.251 172.962L77.1619 174.701L78.4867 173.571L78 173ZM85 166.807L85.5061 167.36L86.115 166.804L85.5029 166.25L85 166.807ZM142 97L142.72 97.211L141.302 96.7265L142 97ZM141.997 97.0119L142.665 97.3544L141.417 96.5367L141.997 97.0119ZM141.967 97.0537L142.605 97.448L142.62 97.425L142.632 97.401L141.967 97.0537ZM97 154.872L96.4661 154.345L96.1057 154.71L96.3156 155.178L97 154.872ZM113.799 166.711L113.681 167.451L113.681 167.451L113.799 166.711ZM125.798 165.668L126.02 166.385L126.303 166.297L126.45 166.039L125.798 165.668ZM140.496 139.805L141.148 140.175L141.785 139.055H140.496V139.805ZM140.401 139.805L140.384 140.555L140.393 140.555H140.401V139.805ZM140.724 139.106L140.73 138.356L140.29 138.353L140.072 138.736L140.724 139.106ZM126 165L125.348 164.629L124.41 166.278L126.222 165.716L126 165ZM137.261 159.689L137.65 160.33L137.792 160.244L137.885 160.106L137.261 159.689ZM138.129 158.351L138.775 157.97L138.141 156.894L137.489 157.96L138.129 158.351ZM138.142 158.372L137.496 158.753L138.148 159.86L138.791 158.748L138.142 158.372ZM145.246 146.087L145.895 146.462L145.939 146.387L145.964 146.305L145.246 146.087ZM148 137L148.718 137.218L149.2 135.627L147.688 136.318L148 137ZM141.676 97.5059L141.15 96.971L141.01 97.1087L140.955 97.2976L141.676 97.5059ZM140.11 140L140.093 140.75L140.102 140.75H140.11V140ZM140.203 140V140.75H140.643L140.857 140.367L140.203 140ZM154.097 115.218L154.751 115.584L154.792 115.512L154.815 115.432L154.097 115.218ZM167 72L167.719 72.2146L166.46 71.4795L167 72ZM147.166 137.893L147.482 138.573L147.788 138.431L147.884 138.108L147.166 137.893ZM154 115L154.719 115.215L153.346 114.634L154 115ZM140 140L139.346 139.633L138.726 140.74L139.994 140.75L140 140ZM142 97L141.347 96.6313L142.537 97.5233L142 97ZM142 97L141.479 96.4607L142.494 97.5643L142 97ZM167.667 71.5732L168.202 72.0981L168.331 71.9669L168.384 71.7912L167.667 71.5732ZM184 17.8167L184.718 18.0348L184.834 17.6507L184.579 17.3406L184 17.8167ZM180.524 14L181.051 13.4663L180.187 12.6138L179.811 13.7673L180.524 14ZM142.032 96.9469L141.393 96.5535L140.016 98.7891L142.366 97.6182L142.032 96.9469ZM120 176L119.344 175.637L118.075 177.93L120.365 176.655L120 176ZM137 160L137.631 160.406L136.604 159.363L137 160ZM125.874 165.385L125.646 164.67L125.362 164.761L125.217 165.022L125.874 165.385ZM114.111 166.742L113.993 167.483L113.994 167.483L114.111 166.742ZM97.4664 155L98.1509 154.693L97.7026 153.692L96.9324 154.473L97.4664 155ZM85 166.885L84.4994 166.327L83.8724 166.889L84.5029 167.447L85 166.885ZM106.348 181L106.019 181.674L106.244 181.784L106.489 181.737L106.348 181ZM120.12 176.079L120.477 176.739L120.666 176.637L120.773 176.449L120.12 176.079ZM126 165.708L126.652 166.078L127.587 164.431L125.778 164.992L126 165.708ZM74 175.121L73.5385 174.53L72.6327 175.237L73.6446 175.782L74 175.121ZM75.6629 175.992L75.3307 176.664L75.3334 176.665L75.6629 175.992ZM77.8442 177L77.5388 177.685L78.583 178.15L78.5942 177.007L77.8442 177ZM78 172L78.7488 172.042L78.8443 170.347L77.5268 171.418L78 172ZM78.1396 172.025L77.6545 171.453L77.4078 171.662L77.3906 171.985L78.1396 172.025ZM78 176.761L77.25 176.754L77.2456 177.239L77.6858 177.442L78 176.761ZM106 180.151L106.143 180.887L108.318 180.463L106.333 179.479L106 180.151ZM84.9901 166L85.4923 165.443L84.988 164.988L84.4856 165.445L84.9901 166ZM87.1071 31.4216L46.5225 64.9254L47.4775 66.0821L88.0621 32.5784L87.1071 31.4216ZM46.2792 65.7112C48.883 74.7597 50.8386 84.5709 51.7351 95.0638L53.2296 94.9362C52.3241 84.3376 50.3491 74.4302 47.7208 65.2964L46.2792 65.7112ZM52.5639 95.7456C56.032 95.3661 59.4429 94.6104 62.7341 93.5043L62.2562 92.0825C59.066 93.1546 55.7606 93.8868 52.4008 94.2544L52.5639 95.7456ZM63.1501 93.1588L88.655 47.4469L87.345 46.716L61.8402 92.428L63.1501 93.1588ZM88.75 47.0803C88.7425 42.1721 88.5987 37.1335 88.3336 31.9616L86.8356 32.0384C87.0995 37.1884 87.2426 42.202 87.25 47.0826L88.75 47.0803ZM79.946 79.604C82.9886 72.4096 85.8079 65.7118 88.4454 59.4518L87.0631 58.8694C84.4253 65.13 81.6065 71.8265 78.5645 79.0198L79.946 79.604ZM88.5036 59.1922C88.6712 55.2192 88.7553 51.1546 88.7497 46.999L87.2497 47.001C87.2553 51.1351 87.1716 55.1779 87.0049 59.129L88.5036 59.1922ZM87.3424 46.6389L62.0058 92.7638L63.3205 93.486L88.6571 47.3611L87.3424 46.6389ZM62.9062 93.8344C64.3487 93.3402 65.7893 92.7894 67.1892 92.1557L66.5707 90.7892C65.2244 91.3986 63.8299 91.9324 62.4201 92.4154L62.9062 93.8344ZM66.2287 91.1004L55.8755 109.224L57.1779 109.968L67.5312 91.8445L66.2287 91.1004ZM56.3101 110.314L56.3452 110.324L56.7785 108.888L56.7434 108.878L56.3101 110.314ZM55.9171 109.223C55.3777 110.131 54.8371 111.048 54.3356 112.005L55.6644 112.701C56.145 111.784 56.6666 110.899 57.2067 109.989L55.9171 109.223ZM54.2638 112.497C55.1353 116.974 56.1947 121.215 57.437 125.222L58.8697 124.778C57.6446 120.826 56.5981 116.638 55.7362 112.21L54.2638 112.497ZM58.8221 125.34C65.5746 112.042 72.6461 96.8796 79.9461 79.6038L78.5644 79.02C71.2771 96.2658 64.2202 111.396 57.4846 124.66L58.8221 125.34ZM87.3116 58.7023C84.6383 64.8831 81.7815 71.4943 78.6985 78.5959L80.0744 79.1932C83.158 72.0904 86.0153 65.478 88.6884 59.2977L87.3116 58.7023ZM78.6984 78.5961C71.313 95.6217 64.1611 110.559 57.3349 123.654L58.6651 124.347C65.5088 111.218 72.6759 96.2491 80.0745 79.193L78.6984 78.5961ZM57.2848 124.226C57.8288 125.948 58.4069 127.626 59.0193 129.263L60.4242 128.737C59.8212 127.126 59.2515 125.472 58.7152 123.775L57.2848 124.226ZM60.3904 129.34C67.3038 115.733 75.7076 101.494 85.8556 87.4281L84.6391 86.5505C74.4404 100.687 65.9971 114.994 59.0531 128.66L60.3904 129.34ZM85.9883 87.1056C87.3663 78.3298 88.3149 68.9664 88.7493 59.0328L87.2507 58.9672C86.8187 68.8468 85.8755 78.1544 84.5065 86.8729L85.9883 87.1056ZM59.295 129.745C61.5065 135.84 64.1252 141.371 67.0812 146.381L68.3731 145.619C65.4658 140.691 62.8861 135.245 60.705 129.234L59.295 129.745ZM68.4088 146.313C75.5838 130.675 82.1235 111.005 85.7415 87.1123L84.2585 86.8877C80.6625 110.634 74.1652 130.17 67.0455 145.687L68.4088 146.313ZM84.3852 86.5705C74.3967 100.868 66.1277 115.337 59.327 129.158L60.673 129.821C67.4444 116.059 75.6755 101.657 85.6148 87.4295L84.3852 86.5705ZM173.654 83.3679L195.654 44.2845L194.346 43.5487L172.346 82.6321L173.654 83.3679ZM195.748 43.859C195.725 43.5618 195.684 43.1978 195.661 42.9348L194.167 43.0652C194.198 43.4158 194.228 43.6578 194.252 43.9742L195.748 43.859ZM194.363 42.4913C187.912 49.4792 181.079 56.7625 173.934 64.2333L175.018 65.2701C182.17 57.7926 189.009 50.5028 195.465 43.5087L194.363 42.4913ZM173.736 64.6312C172.739 70.7536 172.271 76.8983 172.25 82.9975L173.75 83.0025C173.77 76.9767 174.234 70.9111 175.216 64.8721L173.736 64.6312ZM174.391 97.3742L188.946 72.0908L187.646 71.3425L173.091 96.6258L174.391 97.3742ZM188.859 71.2202L188.839 71.1984L187.715 72.1914L187.734 72.2131L188.859 71.2202ZM188.927 72.0704C189.424 71.2095 189.992 70.2888 190.485 69.3415L189.155 68.6482C188.681 69.5572 188.155 70.4084 187.628 71.3195L188.927 72.0704ZM190.489 69.3344C194.619 61.201 196.234 52.437 195.626 43.9465L194.13 44.0535C194.719 52.2808 193.155 60.772 189.152 68.6553L190.489 69.3344ZM194.225 43.6306L172.349 82.2796L173.654 83.0185L195.531 44.3694L194.225 43.6306ZM172.251 82.6457C172.229 87.496 172.497 92.3186 172.995 97.0782L174.487 96.9218C173.993 92.2113 173.73 87.4434 173.751 82.6524L172.251 82.6457ZM194.747 43.4829C194.183 37.2611 192.442 31.2048 189.629 25.6606L188.291 26.3394C191.018 31.7135 192.706 37.5853 193.253 43.6182L194.747 43.4829ZM188.332 25.5903C180.112 38.1942 175.412 51.4987 173.26 64.8809L174.74 65.1191C176.862 51.9255 181.493 38.8225 189.588 26.4097L188.332 25.5903ZM174.544 65.5163C181.543 58.1427 188.235 50.9542 194.553 44.0572L193.447 43.0439C187.134 49.9347 180.448 57.1168 173.456 64.4837L174.544 65.5163ZM25.6685 4.32726C23.1927 5.54734 20.8235 6.96259 18.5658 8.56567L19.4342 9.78872C21.6277 8.2313 23.9282 6.85712 26.3315 5.67274L25.6685 4.32726ZM18.4139 9.6452C19.5787 11.1037 20.8026 12.704 22.0759 14.4431L23.2862 13.5569C22.0014 11.8022 20.7648 10.1852 19.5861 8.70919L18.4139 9.6452ZM23.3847 14.2595L26.7037 5.2595L25.2963 4.7405L21.9773 13.7405L23.3847 14.2595ZM60.3858 1.40561C60.2869 1.37837 60.189 1.3552 60.1106 1.33626C60.0274 1.31613 59.9605 1.29946 59.8973 1.28079L59.472 2.71921C59.5749 2.74964 59.6743 2.774 59.7582 2.79427C59.847 2.81574 59.917 2.83235 59.9874 2.85173L60.3858 1.40561ZM59.0786 1.55821L34.3939 35.4223L35.6061 36.3059L60.2907 2.44179L59.0786 1.55821ZM34.3335 36.2081C36.7269 40.8449 39.0522 45.8852 41.2029 51.2778L42.5962 50.7222C40.4269 45.2829 38.0812 40.1985 35.6665 35.5201L34.3335 36.2081ZM42.592 51.288L49.8721 33.7832L48.4871 33.2072L41.207 50.712L42.592 51.288ZM49.8721 33.7832L62.6925 2.9606L61.3075 2.38454L48.4872 33.2071L49.8721 33.7832ZM62.2257 1.95735C61.6217 1.7667 61.0059 1.57788 60.3873 1.40604L59.9858 2.8513C60.58 3.01637 61.1769 3.19927 61.7743 3.38779L62.2257 1.95735ZM69.5732 5.24223C67.174 4.04286 64.7206 3.06276 62.238 2.28435L61.7892 3.71565C64.1979 4.47089 66.5769 5.42137 68.9025 6.58392L69.5732 5.24223ZM61.3219 2.71018L48.5569 33.178L49.9404 33.7576L62.7053 3.28982L61.3219 2.71018ZM48.5569 33.178L41.3082 50.4813L42.6918 51.0609L49.9404 33.7576L48.5569 33.178ZM41.3032 51.0484C41.5055 51.557 41.7038 52.0472 41.905 52.5564L43.3 52.0052C43.0991 51.4969 42.894 50.9892 42.6968 50.4938L41.3032 51.0484ZM41.9033 52.5521C42.1218 53.1152 42.3302 53.6825 42.5504 54.2652L43.9535 53.7348C43.7403 53.1709 43.5229 52.5794 43.3017 52.0095L41.9033 52.5521ZM43.7534 54.5577L84.5014 17.9216L83.4986 16.8061L42.7505 53.4423L43.7534 54.5577ZM84.5671 16.873C80.5204 12.1975 75.4945 8.19805 69.5728 5.24204L68.9028 6.58411C74.6426 9.44933 79.512 13.3246 83.4329 17.8547L84.5671 16.873ZM36.3496 35.4404L60.607 2.00719L59.393 1.12631L35.1355 34.5596L36.3496 35.4404ZM60.1911 0.841496C48.4612 -2.24872 36.2 -0.752263 25.7751 4.57868L26.458 5.9142C36.5621 0.74735 48.4446 -0.701911 59.8089 2.292L60.1911 0.841496ZM25.41 4.99484L22.2935 13.7467L23.7065 14.2499L26.8231 5.49804L25.41 4.99484ZM22.3879 14.4316C26.347 20.0238 30.8098 27.043 35.0755 35.3428L36.4096 34.6572C32.1069 26.2854 27.6057 19.2058 23.6121 13.5649L22.3879 14.4316ZM48.2731 66.5735L88.4833 32.684L87.5167 31.5371L47.3064 65.4265L48.2731 66.5735ZM88.7489 32.0708C88.5601 28.5169 88.2875 24.8764 87.9752 21.2034L86.4806 21.3305C86.7921 24.9943 87.0634 28.6178 87.2511 32.1504L88.7489 32.0708ZM87.8525 20.8518C86.8518 19.3462 85.7609 17.9056 84.6039 16.5194L83.4523 17.4806C84.5791 18.8306 85.6365 20.2276 86.6033 21.6821L87.8525 20.8518ZM83.5168 16.4513L43.4887 53.7507L44.5113 54.8481L84.5394 17.5487L83.5168 16.4513ZM43.2954 54.5565C44.656 58.2852 45.9279 62.1628 47.0679 66.2036L48.5116 65.7964C47.3605 61.7161 46.0768 57.8029 44.7046 54.0423L43.2954 54.5565ZM54.0223 111.601C53.9491 111.717 53.8721 111.858 53.8309 111.928L55.1268 112.684C55.2033 112.553 55.2348 112.491 55.2924 112.399L54.0223 111.601ZM53.8173 111.953C48.9993 120.976 47.413 130.754 48.6547 140.099L50.1417 139.901C48.9405 130.861 50.4733 121.4 55.1404 112.659L53.8173 111.953ZM50.0468 140.377C52.8512 135.547 55.7223 130.432 58.6601 124.987L57.3399 124.274C54.4098 129.706 51.5463 134.807 48.7496 139.623L50.0468 140.377ZM58.7124 124.396C57.4142 120.451 56.3052 116.27 55.3919 111.848L53.9229 112.152C54.8469 116.625 55.9703 120.862 57.2876 124.865L58.7124 124.396ZM57.6026 123.656C54.7858 129.105 52.0331 134.224 49.3446 139.056L50.6554 139.786C53.3512 134.94 56.1112 129.808 58.9352 124.344L57.6026 123.656ZM49.256 139.516C49.5882 142.126 50.1386 144.697 50.8865 147.214L52.3243 146.786C51.5987 144.345 51.0655 141.853 50.744 139.326L49.256 139.516ZM52.2929 147.3C54.8206 141.502 57.5924 135.526 60.6699 129.412L59.3301 128.737C56.2387 134.879 53.4552 140.88 50.9179 146.7L52.2929 147.3ZM60.7032 128.814C60.0969 127.178 59.524 125.499 58.9847 123.776L57.5531 124.224C58.1 125.971 58.6812 127.674 59.2968 129.335L60.7032 128.814ZM39.4931 56.4473L13.4931 80.2937L14.5069 81.3992L40.5069 57.5527L39.4931 56.4473ZM13.4662 81.3732C15.7344 83.6718 18.2567 85.7732 21.0246 87.6235L21.8582 86.3765C19.1767 84.5839 16.7326 82.5477 14.5338 80.3196L13.4662 81.3732ZM21.9202 87.5773L31.38 79.7319L30.4225 78.5773L20.9626 86.4227L21.9202 87.5773ZM31.595 79.4395L40.6938 57.2849L39.3062 56.7151L30.2075 78.8697L31.595 79.4395ZM20.561 87.5873C22.1051 88.7022 23.7159 89.7291 25.4121 90.6578L26.1325 89.3422C24.4943 88.4452 22.936 87.4519 21.439 86.3711L20.561 87.5873ZM26.4723 90.2691L30.7001 79.2691L29.2999 78.7309L25.0722 89.7309L26.4723 90.2691ZM29.5025 78.4388L20.5025 86.418L21.4975 87.5404L30.4975 79.5612L29.5025 78.4388ZM47.004 64.4216L34.1465 75.0337L35.1013 76.1905L47.9588 65.5784L47.004 64.4216ZM34.1461 75.034L29.9382 78.5117L30.8938 79.668L35.1017 76.1902L34.1461 75.034ZM29.7227 78.8038L25.3067 89.5081L26.6933 90.0802L31.1094 79.3759L29.7227 78.8038ZM25.6627 90.464C26.7383 91.0057 27.8157 91.485 28.894 91.9408L29.4779 90.5591C28.416 90.1103 27.3719 89.6453 26.3373 89.1243L25.6627 90.464ZM28.8947 91.9411C36.7524 95.2513 45.0652 96.3402 53.0823 95.4551L52.9177 93.9641C45.1471 94.822 37.0921 93.7668 29.4771 90.5587L28.8947 91.9411ZM53.7473 94.6458C52.8358 83.971 50.8478 73.9923 48.2021 64.7927L46.7606 65.2073C49.3817 74.3216 51.3503 84.2042 52.2527 94.7734L53.7473 94.6458ZM59.554 128.668C56.5246 134.8 53.7969 140.791 51.3105 146.602L52.6895 147.192C55.1666 141.403 57.8829 135.437 60.8988 129.332L59.554 128.668ZM51.2799 147.106C52.8796 152.597 55.4209 157.801 58.8323 162.444L60.0411 161.556C56.7358 157.057 54.2717 152.013 52.7201 146.687L51.2799 147.106ZM60.084 162.379C62.9539 157.474 65.8629 151.982 68.6814 145.856L67.3186 145.229C64.5218 151.308 61.6358 156.757 58.7894 161.621L60.084 162.379ZM68.6453 145.16C65.7205 140.223 63.1253 134.766 60.9311 128.743L59.5217 129.257C61.7465 135.363 64.3809 140.904 67.3547 145.925L68.6453 145.16ZM42.6996 49.9452C40.5875 44.4779 38.3036 39.3672 35.9524 34.6646L34.6108 35.3354C36.9414 39.997 39.2059 45.0642 41.3004 50.4857L42.6996 49.9452ZM34.6689 34.5675L7.3873 73.2122L8.6127 74.0773L35.8943 35.4325L34.6689 34.5675ZM7.36886 74.0499C9.08104 76.717 11.055 79.2157 13.2769 81.5205L14.3568 80.4795C12.203 78.2453 10.2901 75.8238 8.63114 73.2396L7.36886 74.0499ZM14.3291 81.5478L39.6476 57.873L38.6231 56.7773L13.3046 80.4522L14.3291 81.5478ZM39.831 57.6054L42.6957 50.4957L41.3043 49.9352L38.4397 57.0449L39.831 57.6054ZM19.0393 9.39308C13.1612 13.6606 8.15947 19.2978 4.61212 26.1276L5.94327 26.819C9.37934 20.2035 14.2239 14.7427 19.9206 10.6069L19.0393 9.39308ZM4.61256 26.1267C-2.35558 39.5009 -2.29916 54.5626 3.42716 67.3074L4.79539 66.6926C-0.750971 54.3483 -0.804075 39.7694 5.94283 26.8198L4.61256 26.1267ZM4.81667 67.2548L23.7054 14.9629L22.2946 14.4533L3.40588 66.7452L4.81667 67.2548ZM23.6095 14.2709C22.3808 12.5578 21.198 10.9791 20.0707 9.5379L18.8892 10.4621C20.0028 11.8857 21.1731 13.4477 22.3905 15.1452L23.6095 14.2709ZM43.0803 52.2467C42.8882 51.7377 42.692 51.2297 42.5033 50.7334L41.1012 51.2666C41.2948 51.7756 41.4845 52.2667 41.677 52.7765L43.0803 52.2467ZM41.106 50.7213L38.3037 57.7213L39.6963 58.2787L42.4986 51.2787L41.106 50.7213ZM39.5137 58.5465L41.7437 56.4504L40.7164 55.3574L38.4863 57.4535L39.5137 58.5465ZM41.7449 56.4493L43.5149 54.7784L42.4851 53.6876L40.7152 55.3586L41.7449 56.4493ZM43.7054 53.9782C43.5014 53.4133 43.2934 52.8214 43.0819 52.2509L41.6754 52.7723C41.8845 53.3362 42.084 53.9047 42.2946 54.4878L43.7054 53.9782ZM21.6671 13.7544L3.29137 66.7667L4.70863 67.258L23.0844 14.2456L21.6671 13.7544ZM3.31009 67.3065C4.36373 69.7777 5.63456 72.1481 7.09324 74.4069L8.35333 73.5931C6.93871 71.4025 5.70857 69.1074 4.68991 66.7182L3.31009 67.3065ZM8.33592 74.4326L35.6126 35.8065L34.3874 34.9412L7.11064 73.5674L8.33592 74.4326ZM35.6707 35.0383C31.4085 26.5192 26.9495 19.3148 22.9933 13.5744L21.7582 14.4256C25.6809 20.1172 30.1027 27.2616 34.3293 35.7094L35.6707 35.0383ZM42.6539 53.4505L40.8145 55.1594L41.8355 56.2583L43.6749 54.5495L42.6539 53.4505ZM40.8158 55.1583L38.4982 57.3019L39.5167 58.4031L41.8343 56.2595L40.8158 55.1583ZM38.3127 57.57L29.3053 79.7174L30.6947 80.2826L39.7022 58.1351L38.3127 57.57ZM30.4817 80.5748L34.6735 77.0621L33.7101 75.9124L29.5183 79.4252L30.4817 80.5748ZM34.6731 77.0624L47.4813 66.3435L46.5187 65.1932L33.7104 75.9121L34.6731 77.0624ZM47.7215 65.5635C46.5565 61.4597 45.2572 57.5238 43.8684 53.7415L42.4603 54.2585C43.8374 58.0089 45.1247 61.9089 46.2785 65.9732L47.7215 65.5635ZM145.658 147.359L151.658 136.359L150.342 135.641L144.342 146.641L145.658 147.359ZM150.632 135.346C149.445 136.015 148.335 136.619 147.302 137.122L147.959 138.47C149.032 137.947 150.172 137.326 151.368 136.654L150.632 135.346ZM146.91 137.59L144.279 146.794L145.721 147.206L148.352 138.002L146.91 137.59ZM166.665 71.4371L153.283 114.779L154.717 115.221L168.098 71.8796L166.665 71.4371ZM154.649 115.376L173.144 83.4587L171.846 82.7067L153.351 114.624L154.649 115.376ZM173.245 83.0853C173.265 77.1156 173.738 71.1066 174.74 65.1239L173.26 64.8761C172.244 70.9444 171.766 77.0349 171.745 83.0801L173.245 83.0853ZM173.467 64.4724C171.29 66.6719 169.086 68.8969 166.851 71.1277L167.911 72.1891C170.149 69.9549 172.356 67.7272 174.533 65.5276L173.467 64.4724ZM172.598 82.6287L154.305 114.735L155.608 115.477L173.901 83.3713L172.598 82.6287ZM154.239 114.888L147.282 137.782L148.718 138.218L155.674 115.324L154.239 114.888ZM148.313 138.682C149.437 138.166 150.633 137.554 151.887 136.889L151.185 135.564C149.938 136.224 148.773 136.821 147.687 137.318L148.313 138.682ZM152.185 136.603L174.649 97.8417L173.351 97.0895L150.887 135.85L152.185 136.603ZM174.746 97.3869C174.245 92.6387 173.977 87.8327 173.999 83.0034L172.499 82.9966C172.477 87.8857 172.748 92.7467 173.254 97.5443L174.746 97.3869ZM174.295 65.4737C176.485 52.2373 181.265 39.0906 189.623 26.6354L188.377 25.7996C179.891 38.4469 175.038 51.7983 172.815 65.2288L174.295 65.4737ZM189.664 25.8694C188.121 22.9232 186.271 20.125 184.132 17.5236L182.973 18.4764C185.047 20.9978 186.84 23.7098 188.336 26.5655L189.664 25.8694ZM182.835 17.7802L166.283 71.7802L167.717 72.2198L184.269 18.2198L182.835 17.7802ZM167.532 72.5285C169.748 70.2976 171.934 68.0731 174.09 65.8766L173.02 64.8259C170.864 67.0222 168.681 69.2439 166.468 71.4715L167.532 72.5285ZM89.0678 47.3616L94.6571 37.2051L93.3429 36.4819L87.7536 46.6384L89.0678 47.3616ZM94.7306 36.6739C94.0976 33.9464 93.2289 31.2836 92.1301 28.7059L90.7502 29.2941C91.8147 31.7912 92.6562 34.3707 93.2694 37.013L94.7306 36.6739ZM90.9581 28.4254L87.518 31.3111L88.482 32.4604L91.9221 29.5746L90.9581 28.4254ZM87.251 31.9236C87.5119 37.085 87.6533 42.1097 87.6607 47.0011L89.1607 46.9989C89.1533 42.0802 89.0111 37.0308 88.749 31.8479L87.251 31.9236ZM88.6878 59.2991C91.1932 53.5384 93.5126 48.1879 95.6881 43.1716L94.3119 42.5748C92.1364 47.5913 89.8172 52.941 87.3122 58.7009L88.6878 59.2991ZM95.7456 42.7918C95.5257 40.7773 95.1644 38.7838 94.6977 36.8261L93.2386 37.1739C93.6926 39.0785 94.0422 41.0098 94.2544 42.9545L95.7456 42.7918ZM93.3163 36.6291L87.5981 46.6785L88.9018 47.4204L94.62 37.3709L93.3163 36.6291ZM87.5 47.0505C87.5056 51.1126 87.4204 55.085 87.2507 58.9672L88.7493 59.0328C88.92 55.1278 89.0056 51.1328 89 47.0484L87.5 47.0505ZM95.4854 140.572C111.592 126.9 127.696 112.059 142.84 97.4812L141.8 96.4005C126.67 110.964 110.59 125.782 94.5146 139.428L95.4854 140.572ZM142.32 96.9408C142.925 97.3838 142.925 97.3839 142.925 97.384C142.925 97.384 142.925 97.3841 142.925 97.3842C142.925 97.3843 142.925 97.3845 142.925 97.3846C142.924 97.3849 142.924 97.3851 142.924 97.3854C142.924 97.3859 142.923 97.3865 142.923 97.387C142.922 97.3881 142.921 97.3891 142.92 97.3902C142.919 97.3924 142.917 97.3946 142.915 97.3968C142.912 97.4013 142.908 97.406 142.904 97.4109C142.897 97.4205 142.887 97.4322 142.874 97.4452C142.857 97.4642 142.807 97.5161 142.726 97.5641L141.958 96.2756C141.866 96.3309 141.804 96.3934 141.779 96.421C141.762 96.4384 141.749 96.4539 141.739 96.4663C141.734 96.4726 141.729 96.4784 141.725 96.4837C141.723 96.4863 141.722 96.4888 141.72 96.4912C141.719 96.4923 141.718 96.4935 141.717 96.4946C141.717 96.4952 141.716 96.4957 141.716 96.4963C141.716 96.4966 141.716 96.4968 141.715 96.4971C141.715 96.4972 141.715 96.4974 141.715 96.4975C141.715 96.4976 141.715 96.4977 141.715 96.4977C141.715 96.4978 141.715 96.4979 142.32 96.9408ZM143.068 97.1103C143.08 97.0656 143.088 97.0221 143.092 96.99C143.092 96.9883 143.095 96.9682 143.097 96.9431C143.098 96.9359 143.099 96.9202 143.099 96.9001C143.099 96.89 143.1 96.8729 143.099 96.8517C143.098 96.8357 143.096 96.7909 143.084 96.7348C143.078 96.7072 143.066 96.6539 143.039 96.5908C143.017 96.5396 142.954 96.4038 142.806 96.2904C142.617 96.1454 142.366 96.0962 142.13 96.1683C141.946 96.2246 141.837 96.335 141.798 96.3774C141.715 96.4669 141.676 96.5557 141.669 96.5689C141.655 96.5992 141.646 96.6242 141.642 96.6364C141.627 96.6776 141.62 96.7122 141.619 96.7128C141.617 96.7227 141.615 96.7307 141.615 96.7347C141.613 96.7433 141.612 96.7505 141.611 96.7543C141.608 96.7693 141.606 96.7855 141.603 96.8004L143.086 97.0244C143.088 97.0146 143.088 97.0158 143.087 97.0231C143.086 97.025 143.085 97.0307 143.084 97.0383C143.083 97.0418 143.081 97.0493 143.079 97.0589C143.079 97.0592 143.071 97.0936 143.057 97.1347C143.052 97.1469 143.043 97.1718 143.029 97.2021C143.023 97.2152 142.984 97.304 142.901 97.3935C142.862 97.4359 142.753 97.5463 142.569 97.6027C142.333 97.6748 142.082 97.6256 141.893 97.4805C141.745 97.3671 141.682 97.2313 141.66 97.1801C141.633 97.117 141.62 97.0638 141.615 97.0361C141.603 96.9801 141.601 96.9353 141.6 96.9193C141.599 96.8981 141.599 96.881 141.6 96.871C141.6 96.851 141.601 96.8354 141.602 96.8283C141.603 96.8037 141.606 96.7844 141.606 96.7838C141.61 96.7607 141.613 96.7456 141.617 96.7293L143.068 97.1103ZM143.064 97.1248C147.09 83.4929 152.247 68.4177 156.628 54.9796C160.996 41.5807 164.61 29.7565 165.497 22.7231L164.009 22.5356C163.144 29.3962 159.585 41.0684 155.202 54.5148C150.831 67.9221 145.66 83.0413 141.626 96.7L143.064 97.1248ZM165.497 22.7221C165.831 20.0396 165.823 17.4401 165.54 14.9164L164.049 15.0836C164.32 17.4958 164.327 19.9767 164.008 22.5366L165.497 22.7221ZM164.665 14.2612C147.446 17.2771 135.659 24.3258 125.846 33.8256L126.889 34.9034C136.506 25.5931 148.027 18.6983 164.924 15.7388L164.665 14.2612ZM125.671 34.086C114.211 62.7462 101.951 95.9048 97.3594 117.148L98.8256 117.464C103.387 96.3625 115.598 63.3155 127.064 34.643L125.671 34.086ZM97.3595 117.147C95.7947 124.373 94.2821 132.469 94.25 139.997L95.75 140.003C95.7814 132.644 97.2629 124.681 98.8255 117.465L97.3595 117.147ZM85.6131 87.432C87.9688 84.0892 90.3949 80.7598 92.9377 77.4528L91.7486 76.5385C89.1903 79.8655 86.7518 83.2122 84.3869 86.568L85.6131 87.432ZM92.9377 77.4528C99.3682 69.088 104.879 60.9293 110.295 53.4503L109.08 52.5705C103.623 60.1052 98.1648 68.1923 91.7485 76.5386L92.9377 77.4528ZM110.416 53.1883C114.788 35.2909 116.899 21.1134 117.748 10.0574L116.252 9.94259C115.41 20.9072 113.314 35.0037 108.959 52.8324L110.416 53.1883ZM116.532 9.4142C112.189 12.8859 108.374 17.165 105.358 22.1727L106.643 22.9466C109.565 18.0949 113.261 13.9495 117.468 10.5858L116.532 9.4142ZM106.576 22.078L106.549 22.0457L105.399 23.009L105.426 23.0413L106.576 22.078ZM105.322 22.1556L93.9308 42.1151L95.2335 42.8587L106.625 22.8991L105.322 22.1556ZM95.3271 42.4001C95.3255 42.3867 95.3239 42.3744 95.323 42.3677C95.3217 42.3588 95.3213 42.3561 95.3207 42.3513C95.3197 42.3438 95.3199 42.3444 95.3202 42.3483L93.8244 42.4601C93.8271 42.497 93.831 42.5283 93.8337 42.5487C93.835 42.5578 93.8364 42.5683 93.8369 42.5716C93.8376 42.5773 93.8375 42.5765 93.8372 42.5737L95.3271 42.4001ZM93.8806 42.1142C91.7481 47.2001 89.4748 52.6237 87.0192 58.4632L88.4019 59.0447C90.8578 53.2043 93.1315 47.7799 95.264 42.6942L93.8806 42.1142ZM86.9613 58.722C86.5358 68.6931 85.6069 78.087 84.2587 86.8864L85.7413 87.1136C87.0982 78.2582 88.0322 68.8098 88.4599 58.7859L86.9613 58.722ZM80.4703 152.584C85.3066 148.69 90.1386 144.691 94.955 140.613L93.9858 139.468C89.1778 143.539 84.3553 147.531 79.5297 151.416L80.4703 152.584ZM95.2204 140.044C95.252 132.657 96.7412 124.662 98.3119 117.418L96.8459 117.101C95.2731 124.354 93.7527 132.481 93.7204 140.037L95.2204 140.044ZM98.3119 117.418C102.897 96.2352 115.172 63.0612 126.696 34.2788L125.304 33.7212C113.784 62.4913 101.461 95.7768 96.8459 117.101L98.3119 117.418ZM125.479 33.4605C119.659 39.0822 114.532 45.5655 109.385 52.5477L110.593 53.4377C115.726 46.4738 120.793 40.0719 126.521 34.5395L125.479 33.4605ZM109.261 52.8114C105.495 67.9331 100.084 85.7431 92.3983 106.585L93.8056 107.104C101.508 86.2166 106.936 68.3542 110.717 53.1739L109.261 52.8114ZM92.3983 106.585C85.8279 124.398 81.675 139.337 79.2635 151.858L80.7365 152.142C83.1297 139.715 87.2578 124.856 93.8056 107.104L92.3983 106.585ZM142.75 97.0043V97H141.25V97.0043H142.75ZM141.61 96.3593C141.548 96.397 141.494 96.44 141.448 96.4862C141.425 96.5092 141.404 96.5324 141.385 96.5555C141.376 96.5671 141.368 96.5786 141.36 96.5899C141.356 96.5956 141.352 96.6012 141.348 96.6068C141.346 96.6096 141.344 96.6124 141.342 96.6152C141.341 96.6166 141.341 96.618 141.34 96.6194C141.339 96.62 141.339 96.6207 141.338 96.6214C141.338 96.6218 141.338 96.6221 141.338 96.6225C141.338 96.6226 141.337 96.6229 141.337 96.623C141.337 96.6232 141.337 96.6235 141.97 97.0252C142.604 97.427 142.604 97.4272 142.603 97.4275C142.603 97.4276 142.603 97.4278 142.603 97.428C142.603 97.4283 142.603 97.4287 142.602 97.429C142.602 97.4297 142.601 97.4304 142.601 97.4311C142.6 97.4324 142.599 97.4338 142.598 97.4352C142.597 97.4379 142.595 97.4406 142.593 97.4433C142.589 97.4487 142.586 97.4541 142.582 97.4594C142.574 97.4701 142.566 97.4806 142.558 97.4908C142.542 97.5114 142.524 97.5308 142.506 97.5491C142.469 97.5861 142.43 97.6165 142.39 97.6407L141.61 96.3593ZM141.449 96.4856C126.437 110.976 110.473 125.723 94.5144 139.304L95.4866 140.447C111.476 126.839 127.464 112.069 142.491 97.5649L141.449 96.4856ZM94.2505 139.872C94.228 145.088 94.9314 150.068 96.8472 154.309L98.2142 153.691C96.4187 149.717 95.7285 144.973 95.7505 139.879L94.2505 139.872ZM98.0637 154.528C115.983 136.426 130.806 116.476 142.603 97.4443L141.328 96.6541C129.578 115.61 114.823 135.466 96.9977 153.472L98.0637 154.528ZM141.965 97.0492C142.582 97.4762 142.582 97.4762 142.582 97.4763C142.582 97.4763 142.582 97.4763 142.582 97.4764C142.582 97.4764 142.582 97.4765 142.582 97.4765C142.582 97.4766 142.582 97.4767 142.582 97.4768C142.581 97.477 142.581 97.4772 142.581 97.4774C142.581 97.4778 142.581 97.4782 142.58 97.4786C142.58 97.4793 142.579 97.48 142.579 97.4806C142.578 97.4818 142.577 97.4828 142.577 97.4837C142.576 97.4853 142.575 97.4861 142.575 97.4862C142.575 97.4864 142.576 97.4842 142.579 97.4804L141.421 96.5282C141.401 96.5514 141.386 96.5717 141.374 96.5876C141.368 96.5956 141.363 96.6025 141.359 96.6083C141.357 96.6112 141.355 96.6139 141.353 96.6162C141.352 96.6173 141.351 96.6184 141.351 96.6194C141.35 96.6199 141.35 96.6204 141.35 96.6209C141.35 96.6211 141.349 96.6213 141.349 96.6216C141.349 96.6217 141.349 96.6218 141.349 96.6219C141.349 96.6219 141.349 96.622 141.349 96.6221C141.349 96.6221 141.349 96.6221 141.349 96.6221C141.349 96.6222 141.349 96.6222 141.965 97.0492ZM94.1046 106.996C101.676 86.1523 107.012 68.3272 110.728 53.1787L109.272 52.8213C105.569 67.9119 100.25 85.6852 92.6948 106.484L94.1046 106.996ZM109.393 52.5593C103.943 60.0627 98.4919 68.116 92.0839 76.4275L93.2719 77.3434C99.6941 69.0134 105.198 60.8885 110.607 53.4407L109.393 52.5593ZM92.084 76.4274C89.529 79.7406 87.0936 83.0735 84.7318 86.4153L85.9567 87.281C88.3094 83.9521 90.7323 80.6366 93.2718 77.3434L92.084 76.4274ZM84.6029 86.7347C80.9922 110.329 74.4684 129.74 67.3196 145.158L68.6804 145.789C75.8854 130.25 82.4524 110.703 86.0856 86.9616L84.6029 86.7347ZM67.3557 145.857C69.6387 149.688 72.1146 153.231 74.7578 156.474L75.9205 155.526C73.3255 152.342 70.8913 148.86 68.6443 145.089L67.3557 145.857ZM75.8091 156.585C77.5361 155.196 79.2673 153.795 80.995 152.383L80.0456 151.222C78.3217 152.631 76.5939 154.029 74.8692 155.415L75.8091 156.585ZM81.2572 151.942C83.6099 139.541 87.6679 124.712 94.1046 106.996L92.6948 106.484C86.2361 124.26 82.1539 139.168 79.7835 151.662L81.2572 151.942ZM163.868 22.1141C162.996 29.0222 159.404 40.7746 154.981 54.313C150.57 67.8123 145.352 83.035 141.281 96.7871L142.719 97.2129C146.782 83.4875 151.986 68.3089 156.407 54.7789C160.814 41.288 164.462 29.3833 165.356 22.3021L163.868 22.1141ZM142.687 97.302C142.674 97.3294 142.664 97.3476 142.66 97.3545C142.657 97.3593 142.654 97.3636 142.651 97.3675C142.65 97.3696 142.649 97.3717 142.647 97.3738C142.646 97.3749 142.646 97.376 142.645 97.3771C142.645 97.3777 142.644 97.3783 142.644 97.3789C142.644 97.3792 142.643 97.3795 142.643 97.3798C142.643 97.3799 142.643 97.3801 142.643 97.3802C142.643 97.3803 142.643 97.3804 142.643 97.3804C142.643 97.3805 142.643 97.3805 142.643 97.3806C142.643 97.3806 142.643 97.3807 142.026 96.9539C141.409 96.5272 141.409 96.5273 141.409 96.5273C141.409 96.5274 141.409 96.5274 141.409 96.5275C141.409 96.5275 141.409 96.5276 141.409 96.5277C141.409 96.5278 141.408 96.528 141.408 96.5282C141.408 96.5285 141.408 96.5288 141.408 96.5292C141.407 96.5298 141.407 96.5305 141.406 96.5313C141.405 96.5327 141.404 96.5343 141.403 96.5361C141.401 96.5395 141.398 96.5435 141.395 96.5479C141.389 96.5567 141.382 96.568 141.374 96.5812C141.36 96.6051 141.336 96.6464 141.313 96.698L142.687 97.302ZM142.663 97.3489C163.589 63.5677 175.856 31.5007 181.713 13.6564L180.287 13.1887C174.456 30.9584 162.233 62.9082 141.388 96.559L142.663 97.3489ZM181.526 12.8876C181.379 12.7435 181.186 12.5687 181.069 12.4571L180.034 13.5429C180.212 13.7125 180.325 13.8103 180.474 13.9575L181.526 12.8876ZM180.528 12.2504C174.733 12.4311 169.399 12.9348 164.525 13.7877L164.784 15.2653C169.575 14.4268 174.837 13.9286 180.575 13.7496L180.528 12.2504ZM163.909 14.6103C164.182 17.0392 164.19 19.5375 163.868 22.1152L165.356 22.3011C165.694 19.6004 165.685 16.9834 165.4 14.4427L163.909 14.6103ZM74.3989 156.877C75.5931 158.477 76.8301 160.018 78.0902 161.488L79.2291 160.512C77.9901 159.066 76.7743 157.552 75.6011 155.98L74.3989 156.877ZM79.4039 161.093C79.7602 158.248 80.2017 155.268 80.7393 152.126L79.2607 151.874C78.7196 155.036 78.2747 158.038 77.9155 160.907L79.4039 161.093ZM79.5002 151.441C77.8366 152.928 76.1692 154.403 74.5049 155.865L75.4951 156.992C77.1618 155.527 78.8324 154.05 80.4998 152.559L79.5002 151.441ZM79.6415 151.752C79.0846 154.74 78.6267 157.576 78.2569 160.287L79.7431 160.49C80.1094 157.804 80.5634 154.993 81.1161 152.027L79.6415 151.752ZM78.4497 160.898C80.3096 162.906 82.2341 164.794 84.2152 166.56L85.2131 165.44C83.2684 163.707 81.3782 161.852 79.5503 159.879L78.4497 160.898ZM85.2177 166.556C89.4858 162.69 93.5917 158.73 97.5368 154.687L96.4632 153.639C92.5396 157.66 88.4558 161.599 84.2106 165.444L85.2177 166.556ZM97.6852 153.858C95.9104 149.871 95.2283 145.112 95.25 140.003L93.75 139.997C93.7278 145.226 94.4226 150.217 96.3148 154.468L97.6852 153.858ZM94.0101 139.432C89.3182 143.479 84.6123 147.447 79.9032 151.31L80.8544 152.47C85.5741 148.598 90.2896 144.622 94.9898 140.568L94.0101 139.432ZM126.745 34.167C131.777 21.5608 136.65 9.83882 140.691 0.292316L139.309 -0.292316C135.266 9.26104 130.389 20.9928 125.352 33.6108L126.745 34.167ZM139.886 -0.741233C131.563 0.54252 123.644 3.95761 116.981 9.22375L117.912 10.4005C124.368 5.29703 132.045 1.9859 140.114 0.741233L139.886 -0.741233ZM116.699 9.75392C115.842 20.7633 113.706 34.9176 109.272 52.8197L110.728 53.1803C115.18 35.2088 117.33 20.9724 118.194 9.87035L116.699 9.75392ZM110.605 53.4439C115.75 46.4365 120.829 39.9945 126.571 34.4274L125.526 33.3505C119.693 39.007 114.554 45.5304 109.395 52.5561L110.605 53.4439ZM180.516 12.9193C177.1 9.68013 173.163 6.86967 168.73 4.63256L168.054 5.97173C172.354 8.14166 176.171 10.8669 179.484 14.0078L180.516 12.9193ZM168.729 4.6324C165.949 3.23118 163.093 2.12232 160.21 1.28009L159.79 2.71991C162.589 3.53752 165.359 4.61338 168.054 5.97189L168.729 4.6324ZM159.328 2.33369C161.284 6.26959 162.717 10.5438 163.225 15.0833L164.715 14.9167C164.184 10.1699 162.689 5.72646 160.672 1.66631L159.328 2.33369ZM164.099 15.7388C168.931 14.8948 174.237 14.3933 180.023 14.2132L179.977 12.7139C174.134 12.8958 168.756 13.4027 163.841 14.2612L164.099 15.7388ZM164.745 14.6153C164.23 9.94587 162.776 5.57471 160.815 1.58043L159.469 2.24138C161.369 6.11197 162.761 10.3154 163.255 14.78L164.745 14.6153ZM160.355 1.19166C153.481 -0.839814 146.387 -1.23956 139.578 -0.18376L139.808 1.29853C146.405 0.275671 153.275 0.663278 159.929 2.63015L160.355 1.19166ZM139.002 0.26641C135.034 9.69399 130.247 21.2713 125.303 33.7232L126.697 34.2768C131.636 21.8366 136.419 10.2691 140.384 0.848355L139.002 0.26641ZM126.524 34.5368C136.034 25.2571 147.424 18.3857 164.13 15.4362L163.87 13.9591C146.839 16.9658 135.181 23.9931 125.476 33.4632L126.524 34.5368ZM91.6988 28.773C90.5899 25.9276 89.2332 23.1904 87.6382 20.6061L86.3618 21.3939C87.9078 23.899 89.2244 26.5546 90.3012 29.3177L91.6988 28.773ZM86.2524 21.0594C86.5477 24.7764 86.8049 28.4528 86.9828 32.0372L88.481 31.9628C88.302 28.3585 88.0437 24.6661 87.7476 20.9406L86.2524 21.0594ZM88.2349 32.5563L91.503 29.6017L90.497 28.489L87.2289 31.4437L88.2349 32.5563ZM66.9307 145.679C64.1196 151.609 61.2187 156.925 58.3577 161.67L59.6423 162.445C62.5276 157.659 65.4524 152.299 68.2861 146.321L66.9307 145.679ZM58.4017 162.51C59.4506 163.897 60.5748 165.237 61.7825 166.515L62.8729 165.485C61.7052 164.249 60.6163 162.952 59.5983 161.605L58.4017 162.51ZM62.7735 166.603C67.001 163.478 71.2308 160.26 75.4624 156.947L74.5376 155.766C70.3169 159.071 66.0981 162.28 61.8819 165.397L62.7735 166.603ZM75.5759 155.876C72.9625 152.744 70.5114 149.319 68.2486 145.609L66.9681 146.391C69.2678 150.16 71.7617 153.646 74.4241 156.837L75.5759 155.876ZM79.5387 159.829C78.2058 158.453 76.898 157.012 75.6362 155.516L74.4897 156.484C75.7747 158.007 77.1056 159.473 78.4613 160.873L79.5387 159.829ZM74.6034 155.407C70.2524 158.78 65.9034 162.056 61.557 165.237L62.443 166.448C66.8006 163.259 71.1606 159.974 75.5224 156.593L74.6034 155.407ZM61.4583 166.361C64.9295 169.986 69.0323 173.135 73.692 175.659L74.4066 174.341C69.8824 171.889 65.9042 168.835 62.5417 165.324L61.4583 166.361ZM74.5139 175.589C75.7477 174.615 77.0473 173.631 78.2782 172.619L77.3256 171.461C76.108 172.462 74.8531 173.41 73.5847 174.411L74.5139 175.589ZM78.5508 172.08C78.7429 168.518 79.1355 164.642 79.7422 160.458L78.2578 160.243C77.6454 164.465 77.2478 168.387 77.053 172L78.5508 172.08ZM78.4261 160.898C77.8287 165.231 77.4409 169.255 77.251 172.962L78.749 173.038C78.9365 169.38 79.3198 165.399 79.912 161.102L78.4261 160.898ZM78.4867 173.571C80.8753 171.533 83.2112 169.459 85.5061 167.36L84.4939 166.253C82.2097 168.342 79.8868 170.405 77.5133 172.429L78.4867 173.571ZM85.5029 166.25C83.5179 164.457 81.5886 162.537 79.7229 160.494L78.6152 161.506C80.5127 163.583 82.476 165.537 84.4971 167.363L85.5029 166.25ZM141.302 96.7265C141.297 96.7393 141.293 96.7475 141.291 96.7528C141.291 96.7541 141.289 96.7596 141.287 96.7642C141.286 96.7658 141.285 96.7687 141.284 96.7724C141.283 96.7743 141.279 96.7842 141.275 96.7968C141.273 96.8013 141.267 96.8191 141.261 96.8424C141.259 96.852 141.251 96.8809 141.245 96.9186C141.242 96.9365 141.236 96.9749 141.236 97.0241C141.235 97.0479 141.231 97.19 141.304 97.3501C141.35 97.4355 141.499 97.6076 141.606 97.6835C141.736 97.744 141.996 97.7866 142.115 97.7754C142.341 97.7357 142.477 97.6041 142.493 97.589C142.565 97.5232 142.607 97.4572 142.609 97.4532C142.631 97.4205 142.646 97.3928 142.647 97.39C142.66 97.3663 142.684 97.3146 142.669 97.3457C142.669 97.3459 142.669 97.3467 142.668 97.348C142.667 97.3492 142.666 97.3514 142.665 97.3544L141.33 96.6694C141.321 96.6869 141.314 96.702 141.31 96.711C141.291 96.7512 141.312 96.7058 141.324 96.6832C141.326 96.6805 141.34 96.6528 141.362 96.6202C141.365 96.6162 141.407 96.5502 141.478 96.4844C141.495 96.4693 141.63 96.3377 141.856 96.298C141.975 96.2868 142.235 96.3294 142.365 96.3899C142.472 96.4659 142.621 96.6379 142.667 96.7233C142.741 96.8834 142.736 97.0255 142.735 97.0493C142.735 97.0985 142.729 97.1369 142.726 97.1548C142.72 97.1925 142.713 97.2213 142.71 97.2309C142.704 97.2541 142.698 97.2719 142.696 97.2763C142.692 97.2887 142.688 97.2983 142.688 97.2998C142.687 97.3031 142.686 97.3057 142.685 97.3066C142.684 97.309 142.684 97.3107 142.685 97.3062C142.688 97.3001 142.692 97.2895 142.698 97.2735L141.302 96.7265ZM141.417 96.5367C141.391 96.5683 141.369 96.5984 141.35 96.6267C141.341 96.6409 141.332 96.6546 141.324 96.6679C141.32 96.6746 141.317 96.6811 141.313 96.6875C141.311 96.6907 141.309 96.6939 141.308 96.697C141.307 96.6986 141.306 96.7002 141.305 96.7017C141.305 96.7025 141.304 96.7033 141.304 96.7041C141.304 96.7045 141.304 96.7048 141.303 96.7052C141.303 96.7054 141.303 96.7056 141.303 96.7058C141.303 96.7059 141.303 96.706 141.303 96.7061C141.303 96.7062 141.303 96.7064 141.967 97.0537C142.632 97.401 142.632 97.4012 142.632 97.4013C142.632 97.4014 142.632 97.4015 142.632 97.4016C142.632 97.4018 142.632 97.402 142.632 97.4022C142.631 97.4026 142.631 97.4029 142.631 97.4033C142.631 97.4041 142.63 97.4048 142.63 97.4056C142.629 97.4071 142.628 97.4086 142.627 97.41C142.626 97.413 142.624 97.4158 142.623 97.4186C142.62 97.4241 142.617 97.4293 142.614 97.4341C142.608 97.4439 142.603 97.4523 142.598 97.4594C142.588 97.4737 142.581 97.4829 142.578 97.4871L141.417 96.5367ZM141.329 96.6594C129.435 115.907 114.503 136.065 96.4661 154.345L97.5339 155.398C115.665 137.023 130.664 116.771 142.605 97.448L141.329 96.6594ZM96.3156 155.178C99.1139 161.42 104.46 165.992 113.681 167.451L113.916 165.97C105.161 164.584 100.262 160.314 97.6844 154.565L96.3156 155.178ZM113.681 167.451C117.85 168.11 121.953 167.646 126.02 166.385L125.576 164.952C121.686 166.159 117.817 166.586 113.916 165.97L113.681 167.451ZM126.45 166.039L141.148 140.175L139.844 139.434L125.146 165.298L126.45 166.039ZM140.496 139.055H140.401V140.555H140.496V139.055ZM140.418 139.055C139.464 139.034 138.723 138.758 138.135 138.282C137.538 137.799 137.048 137.069 136.682 136.058C135.942 134.014 135.764 130.989 136.084 127.137C136.722 119.459 139.301 108.871 142.72 97.211L141.28 96.789C137.86 108.455 135.241 119.17 134.589 127.013C134.264 130.922 134.418 134.212 135.272 136.568C135.702 137.757 136.325 138.748 137.191 139.448C138.066 140.156 139.138 140.527 140.384 140.555L140.418 139.055ZM140.072 138.736L125.348 164.629L126.652 165.371L141.376 139.477L140.072 138.736ZM126.222 165.716C130.038 164.533 133.836 162.642 137.65 160.33L136.873 159.048C133.12 161.322 129.437 163.149 125.778 164.284L126.222 165.716ZM137.885 160.106C138.18 159.666 138.483 159.21 138.769 158.742L137.489 157.96C137.222 158.398 136.934 158.83 136.638 159.272L137.885 160.106ZM137.483 158.732L137.496 158.753L138.788 157.992L138.775 157.97L137.483 158.732ZM138.791 158.748L145.895 146.462L144.597 145.712L137.493 157.997L138.791 158.748ZM145.964 146.305L148.718 137.218L147.282 136.782L144.528 145.869L145.964 146.305ZM147.688 136.318C144.717 137.677 142.37 138.369 140.73 138.356L140.718 139.856C142.705 139.871 145.303 139.058 148.312 137.682L147.688 136.318ZM140.955 97.2976C137.607 108.879 135.042 119.516 134.404 127.301C134.086 131.182 134.237 134.447 135.072 136.786C135.494 137.966 136.104 138.95 136.954 139.647C137.813 140.352 138.867 140.722 140.093 140.75L140.127 139.25C139.199 139.229 138.478 138.957 137.905 138.487C137.323 138.01 136.844 137.285 136.485 136.281C135.76 134.252 135.586 131.248 135.899 127.424C136.524 119.801 139.049 109.289 142.396 97.7142L140.955 97.2976ZM140.11 140.75H140.203V139.25H140.11V140.75ZM140.857 140.367L154.751 115.584L153.442 114.851L139.549 139.633L140.857 140.367ZM154.815 115.432L167.719 72.2146L166.281 71.7854L153.378 115.003L154.815 115.432ZM166.46 71.4795C158.366 79.8764 149.863 88.4084 141.15 96.971L142.201 98.0408C150.922 89.4713 159.434 80.9295 167.54 72.5205L166.46 71.4795ZM147.884 138.108L154.719 115.215L153.281 114.785L146.447 137.678L147.884 138.108ZM153.346 114.634L139.346 139.633L140.654 140.366L154.654 115.366L153.346 114.634ZM139.994 140.75C141.956 140.765 144.519 139.949 147.482 138.573L146.85 137.213C143.923 138.572 141.616 139.262 140.006 139.25L139.994 140.75ZM142.537 97.5233C142.53 97.5305 142.524 97.536 142.519 97.5407C142.517 97.5431 142.513 97.5467 142.507 97.5513C142.505 97.5536 142.5 97.5572 142.495 97.5616C142.491 97.5645 142.479 97.5742 142.463 97.586C142.457 97.5908 142.437 97.605 142.41 97.6211C142.398 97.6285 142.369 97.6453 142.331 97.6625C142.325 97.6651 142.191 97.7316 142.01 97.7282C141.905 97.7262 141.677 97.6978 141.486 97.5014C141.288 97.2982 141.268 97.0593 141.275 96.9374C141.286 96.7403 141.375 96.6023 141.376 96.5993C141.413 96.5365 141.452 96.4928 141.455 96.4899C141.474 96.467 141.491 96.4505 141.493 96.4484C141.499 96.4427 141.503 96.4385 141.505 96.4366C141.512 96.4302 141.514 96.4288 141.506 96.4357L142.494 97.5643C142.507 97.5533 142.521 97.5403 142.535 97.5272C142.539 97.5237 142.545 97.5181 142.551 97.5114C142.555 97.5082 142.572 97.4909 142.592 97.4675C142.595 97.4644 142.634 97.4205 142.671 97.3575C142.673 97.3544 142.762 97.2164 142.773 97.0193C142.779 96.8974 142.759 96.6584 142.561 96.4553C142.37 96.2589 142.143 96.2304 142.038 96.2285C141.856 96.2251 141.722 96.2916 141.716 96.2942C141.678 96.3115 141.649 96.3283 141.637 96.3357C141.61 96.352 141.59 96.3664 141.583 96.3714C141.528 96.4113 141.482 96.4567 141.463 96.4767L142.537 97.5233ZM142.521 97.5393C151.359 88.9963 159.987 80.481 168.202 72.0981L167.131 71.0482C158.927 79.4192 150.31 87.9247 141.479 96.4607L142.521 97.5393ZM168.384 71.7912L184.718 18.0348L183.282 17.5987L166.949 71.3551L168.384 71.7912ZM184.579 17.3406C183.474 15.9956 182.299 14.6994 181.051 13.4663L179.997 14.5337C181.206 15.7281 182.346 16.9855 183.421 18.2929L184.579 17.3406ZM179.811 13.7673C174.05 31.4141 161.977 63.1429 141.393 96.5535L142.67 97.3402C163.334 63.7995 175.452 31.9538 181.237 14.2327L179.811 13.7673ZM142.366 97.6182C142.364 97.6193 142.349 97.6269 142.328 97.6356C142.324 97.6377 142.25 97.6712 142.15 97.6869C142.104 97.6942 141.971 97.7121 141.81 97.662C141.605 97.5979 141.409 97.4367 141.324 97.1891C141.258 96.9959 141.29 96.8339 141.303 96.7776C141.319 96.7079 141.342 96.6561 141.353 96.6327C141.375 96.5848 141.397 96.5502 141.401 96.5435C141.409 96.5315 141.415 96.5226 141.417 96.5205C141.417 96.5195 141.423 96.511 141.417 96.5207C141.399 96.545 141.375 96.5807 141.347 96.6313L142.653 97.3687C142.653 97.3681 142.652 97.3702 142.65 97.3745C142.646 97.3793 142.643 97.3837 142.642 97.3863C142.637 97.3922 142.646 97.3808 142.648 97.3775C142.65 97.3743 142.657 97.3644 142.665 97.3517C142.67 97.3442 142.693 97.3089 142.715 97.2606C142.726 97.2369 142.749 97.1849 142.765 97.115C142.778 97.0586 142.81 96.8965 142.743 96.7032C142.659 96.4555 142.463 96.2943 142.257 96.2301C142.097 96.18 141.963 96.1979 141.917 96.2052C141.817 96.2209 141.743 96.2546 141.737 96.257C141.716 96.2659 141.7 96.274 141.697 96.2756L142.366 97.6182ZM120.365 176.655C127.177 172.862 133.149 167.375 137.631 160.406L136.369 159.594C132.023 166.353 126.235 171.67 119.635 175.345L120.365 176.655ZM136.604 159.363C132.897 161.669 129.259 163.521 125.646 164.67L126.101 166.1C129.874 164.899 133.628 162.981 137.396 160.637L136.604 159.363ZM125.217 165.022L119.344 175.637L120.656 176.363L126.53 165.748L125.217 165.022ZM114.228 166.001C105.556 164.627 100.704 160.393 98.1509 154.693L96.7819 155.307C99.5553 161.499 104.854 166.035 113.993 167.483L114.228 166.001ZM96.9324 154.473C92.951 158.51 88.8071 162.466 84.4994 166.327L85.5006 167.444C89.8313 163.562 93.9975 159.586 98.0004 155.527L96.9324 154.473ZM84.5029 167.447C91.2514 173.42 98.5805 178.054 106.019 181.674L106.676 180.326C99.3412 176.756 92.1297 172.194 85.4971 166.324L84.5029 167.447ZM106.489 181.737C111.378 180.8 116.095 179.108 120.477 176.739L119.763 175.42C115.515 177.717 110.943 179.356 106.206 180.263L106.489 181.737ZM120.773 176.449L126.652 166.078L125.348 165.339L119.468 175.709L120.773 176.449ZM125.778 164.992C121.924 166.189 118.093 166.613 114.228 166.001L113.994 167.483C118.126 168.136 122.192 167.676 126.222 166.425L125.778 164.992ZM73.6446 175.782C74.1891 176.075 74.7514 176.378 75.3307 176.664L75.995 175.319C75.4435 175.047 74.905 174.756 74.3554 174.461L73.6446 175.782ZM75.3334 176.665C76.0713 177.026 76.8094 177.36 77.5388 177.685L78.1495 176.315C77.423 175.991 76.7051 175.667 75.9923 175.318L75.3334 176.665ZM78.5942 177.007C78.6097 175.409 78.6517 173.768 78.7488 172.042L77.2512 171.958C77.1524 173.713 77.11 175.378 77.0942 176.993L78.5942 177.007ZM77.5268 171.418C76.2284 172.474 74.8894 173.475 73.5385 174.53L74.4615 175.712C75.7777 174.685 77.1616 173.649 78.4732 172.582L77.5268 171.418ZM77.3906 171.985C77.3021 173.647 77.2641 175.224 77.25 176.754L78.75 176.768C78.7639 175.253 78.8015 173.699 78.8885 172.065L77.3906 171.985ZM77.6858 177.442C86.9107 181.698 96.8231 182.703 106.143 180.887L105.857 179.415C96.8361 181.173 87.2448 180.2 78.3142 176.08L77.6858 177.442ZM106.333 179.479C99.1158 175.901 92.0194 171.328 85.4923 165.443L84.4879 166.557C91.1303 172.546 98.3444 177.192 105.667 180.823L106.333 179.479ZM84.4856 165.445C82.2504 167.477 79.9772 169.483 77.6545 171.453L78.6246 172.597C80.9624 170.615 83.2486 168.596 85.4946 166.555L84.4856 165.445ZM194.502 135.25C181.651 135.25 171.25 145.662 171.25 158.5H172.75C172.75 146.49 182.48 136.75 194.502 136.75V135.25ZM171.25 158.5C171.25 171.34 181.651 181.75 194.502 181.75V180.25C182.48 180.25 172.75 170.512 172.75 158.5H171.25ZM194.502 181.75C207.343 181.75 217.75 171.34 217.75 158.5H216.25C216.25 170.512 206.515 180.25 194.502 180.25V181.75ZM217.75 158.5C217.75 145.662 207.343 135.25 194.502 135.25V136.75C206.515 136.75 216.25 146.49 216.25 158.5H217.75Z" fill="#FEFEFE"/>
</svg>
