<svg width="33" height="19" viewBox="0 0 33 19" fill="none" xmlns="http://www.w3.org/2000/svg">
<path id="Combined Shape Copy" fill-rule="evenodd" clip-rule="evenodd" d="M14.7505 0.777993C14.6235 0.924735 14.6001 1.09544 14.6001 1.26093V13.4183C14.6001 15.3531 15.1189 16.7301 16.0908 17.597C17.069 18.4681 18.4897 18.797 20.0777 18.8001L21.0201 18.797C21.1576 18.7866 21.2996 18.7564 21.4201 18.6472C21.5706 18.5118 21.6001 18.3349 21.6001 18.2131L21.5916 15.9994C21.5916 15.8755 21.5664 15.6998 21.4148 15.5643C21.2677 15.4332 21.0846 15.4249 20.9206 15.4249L19.7221 15.4145C19.3261 15.4145 18.8444 15.2698 18.5595 14.9762C18.2452 14.6463 18.044 14.2894 18.044 13.7139V8.17587L20.929 8.17897C21.0952 8.17897 21.272 8.15303 21.416 8.02602C21.5706 7.89704 21.6001 7.72309 21.6001 7.60031V5.39594C21.6001 5.28148 21.5706 5.10245 21.416 4.97136C21.272 4.84957 21.0952 4.82349 20.929 4.82349H18.044V1.26093C18.044 1.09234 18.0175 0.924735 17.8885 0.777993C17.7593 0.63125 17.5707 0.600098 17.4481 0.600098L15.195 0.603199C15.0744 0.603199 14.8892 0.63125 14.7505 0.777993ZM6.90016 18.8001C8.34023 18.7664 8.81598 17.6547 8.91447 17.4245L8.91916 17.4136C8.99943 17.2125 13.1697 5.29306 13.1697 5.29306L13.1758 5.2717C13.1879 5.22978 13.2001 5.18741 13.2001 5.14195C13.1923 4.90337 12.9728 4.80023 12.8161 4.80023H10.3935C10.1779 4.79614 9.98114 4.88771 9.92236 5.06393C9.86358 5.20968 6.90905 14.4957 6.90905 14.4957C6.91091 14.5009 3.93091 5.20968 3.87797 5.06393C3.81627 4.88982 3.61738 4.79614 3.40284 4.80023H0.983146C0.825522 4.80023 0.601159 4.90337 0.600098 5.14195C0.600098 5.19515 0.611906 5.2441 0.63141 5.29306C0.63141 5.29306 4.8135 17.2563 4.88302 17.4136C4.94963 17.5792 5.43166 18.7658 6.90016 18.8001ZM27.4958 9.89293C27.4958 9.3241 27.6827 8.95311 27.9615 8.63122C28.2264 8.33319 28.6494 8.18939 29.0053 8.18939L32.1948 8.19151C32.3447 8.19151 32.5002 8.16752 32.6368 8.04461C32.7735 7.91013 32.7973 7.72682 32.7973 7.60588L32.8001 5.38671C32.8001 5.26902 32.7754 5.08247 32.6415 4.95123C32.5345 4.85118 32.4073 4.81266 32.282 4.80744L32.2839 4.8001H29.3259C27.9037 4.8001 26.6239 5.13454 25.7511 6.00352C24.8783 6.87872 24.4001 8.24993 24.4001 10.191V18.1386C24.4001 18.2948 24.421 18.473 24.5349 18.6127C24.6602 18.7637 24.8234 18.7906 24.9342 18.7906L26.954 18.8001C27.0641 18.8001 27.2273 18.7741 27.3526 18.6251C27.4446 18.5021 27.4702 18.3625 27.4873 18.226L27.4958 9.89293Z" fill="#FFFFFE"/>
</svg>
